<svg xmlns="http://www.w3.org/2000/svg" viewBox="0 0 15.94 15.71"><defs><style>.cls-1{fill:#39c4d4;}.cls-2{fill:#474e5c;}</style></defs><title>id_favicon</title><g id="Layer_2" data-name="Layer 2"><g id="Layer_1-2" data-name="Layer 1"><path class="cls-1" d="M9.77,7.36.53,0A.36.36,0,0,0,0,.33V.75H0v.39H0V3.87H0v.22H0V4.3a.29.29,0,0,0,.19.25L4.4,7.71.19,10.88a.29.29,0,0,0-.19.25v.21H0v.22H0v2.72H0v.39H0v.42a.36.36,0,0,0,.53.3L9.77,8.06A.33.33,0,0,0,10,7.76V7.66A.33.33,0,0,0,9.77,7.36Z"/><path class="cls-2" d="M15.59,12.22a.4.4,0,0,1,.35.42v2.65a.4.4,0,0,1-.35.42H7.5a.4.4,0,0,1-.35-.42V12.64a.4.4,0,0,1,.35-.42Z"/></g></g></svg>