<svg width="224" height="57" viewBox="0 0 224 57" fill="none" xmlns="http://www.w3.org/2000/svg">
<path d="M27.0129 1.75562C37.6124 1.75562 46.1979 24.9326 46.1979 35.7199C46.1979 38.2842 45.7016 40.8231 44.7375 43.1922C43.7732 45.5611 42.3601 47.7137 40.5785 49.5269C38.7969 51.3398 36.6819 52.7782 34.3542 53.7594C32.0264 54.7408 29.5315 55.2457 27.012 55.2457C24.4924 55.2457 21.9977 54.7408 19.6699 53.7594C17.3422 52.7782 15.2272 51.3398 13.4456 49.5269C11.664 47.7137 10.2508 45.5611 9.28662 43.1922C8.32244 40.8231 7.82617 38.2842 7.82617 35.7199C7.82617 24.9326 16.4162 1.75562 27.0129 1.75562Z" fill="#FCFBFA"/>
<path d="M51.3385 20.4613L43.5117 23.2713C43.5117 23.2713 44.7238 27.0203 44.7342 27.0462C44.7446 27.072 52.5296 26.0251 52.5296 26.0251L51.3385 20.4613Z" fill="#252526"/>
<path d="M2.68334 20.4613L10.5101 23.2713C10.5101 23.2713 9.29805 27.0203 9.28761 27.0462C9.27718 27.072 1.49219 26.0251 1.49219 26.0251L2.68334 20.4613Z" fill="#252526"/>
<path d="M18.9598 19.7983C20.9262 19.8287 21.3555 21.4931 21.4271 21.889C21.6749 23.2457 21.8383 24.617 21.9161 25.9946C21.9233 26.3802 21.8888 26.7653 21.8132 27.1431C21.7148 26.1509 21.5762 25.2041 21.4271 24.3833C21.3555 23.9888 20.9262 22.3229 18.9598 22.2927C17.7672 22.2745 13.9582 22.4139 10.1641 22.9724C10.4384 22.1014 10.735 21.226 11.0585 20.3536C13.6791 20.0087 16.3175 19.8233 18.9598 19.7983Z" fill="#E0E0E0"/>
<path d="M46.1619 34.8518C39.252 34.4893 33.3501 32.2484 32.0173 31.4337C30.9737 30.9269 29.6543 29.8573 29.2726 27.1857C29.0178 30.1364 29.5708 32.8264 32.287 34.1539C32.4883 34.2768 37.7018 36.903 46.1126 37.3522C46.156 36.8149 46.1797 36.2733 46.1797 35.7241C46.1813 35.4374 46.1738 35.1477 46.1619 34.8518Z" fill="#E0E0E0"/>
<path d="M7.88331 34.8518C14.7932 34.4893 20.6953 32.2484 22.0281 31.4337C23.0717 30.9269 24.3911 29.8573 24.7726 27.1857C25.0276 30.1364 24.4744 32.8264 21.7583 34.1539C21.557 34.2768 16.3437 36.903 7.93251 37.3522C7.88928 36.8149 7.86542 36.2733 7.86542 35.7241C7.86393 35.4374 7.87139 35.1477 7.88331 34.8518Z" fill="#E0E0E0"/>
<path d="M35.0473 19.7983C33.081 19.8287 32.6516 21.493 32.5802 21.889C32.3349 23.2452 32.174 24.6161 32.0986 25.9929C32.0914 26.3785 32.1259 26.7636 32.2014 27.1416C32.2999 26.1492 32.4386 25.2026 32.5876 24.3817C32.659 23.9873 33.0884 22.3215 35.0548 22.2911C36.2475 22.2728 40.0566 22.4125 43.8506 22.9707C43.5764 22.0999 43.2795 21.2245 42.9561 20.3521C40.3331 20.0074 37.692 19.8225 35.0473 19.7983Z" fill="#E0E0E0"/>
<path d="M10.232 17.685C12.1224 13.0331 14.3765 9.01695 16.7722 6.05531C20.0236 2.03764 23.4734 0 27.0155 0C30.5577 0 34.0013 2.03614 37.2572 6.05379C39.6559 9.01393 41.9175 13.0331 43.7973 17.685L43.89 17.911L43.6514 17.8792C42.988 17.7896 42.4452 17.7274 41.7833 17.6516L41.7029 17.6425L41.6702 17.5666C39.5532 12.5309 35.932 5.95516 31.2568 3.20593C29.8436 2.37449 28.4154 1.95269 27.0155 1.95269C25.6157 1.95269 24.1829 2.37449 22.7741 3.20593C18.1064 5.95062 14.4972 12.5036 12.3624 17.5666L12.3296 17.6425L12.2491 17.6516C11.5842 17.7244 11.0415 17.7896 10.3811 17.8792L10.1426 17.911L10.232 17.685Z" fill="#56555C"/>
<path d="M46.3826 32.42C45.8638 32.4062 45.339 32.385 44.8202 32.3548L44.6593 32.3456L44.6383 32.1833C44.1777 28.4812 43.1253 24.1419 41.6763 19.9818L41.5703 19.6783L41.885 19.7208C42.4811 19.8028 43.0596 19.8908 43.6112 19.9863L43.7246 20.0061L43.7619 20.1168C45.1527 24.2756 46.147 28.5662 46.578 32.1999L46.6047 32.426L46.3826 32.42Z" fill="#56555C"/>
<path d="M44.6695 23.0405C44.3894 22.065 44.0867 21.0879 43.7617 20.1168L43.7244 20.0061L43.6112 19.9863C43.0596 19.8908 42.4782 19.8028 41.8847 19.7208L41.5703 19.6783L41.676 19.9818C41.9981 20.9058 42.2977 21.8374 42.578 22.769C43.5843 22.8843 44.1538 22.9663 44.6695 23.0405Z" fill="#252526"/>
<path d="M7.57759 32.1149C8.00249 28.4736 9.0028 24.1891 10.3937 20.0321L10.431 19.9213L10.5443 19.9016C11.0959 19.8076 11.6758 19.718 12.2707 19.6361L12.5852 19.5936L12.4794 19.8971C11.0288 24.0617 9.9778 28.3934 9.51715 32.0983L9.49627 32.2605L9.33526 32.2697C8.81647 32.3002 8.29169 32.3214 7.77439 32.335H7.55078L7.57759 32.1149Z" fill="#56555C"/>
<path d="M10.5482 19.9001L10.4349 19.9198L10.3977 20.0306C10.0727 21.0031 9.76854 21.9832 9.48828 22.9602C10.4618 22.8344 10.745 22.8496 11.5575 22.7615C11.8438 21.8042 12.1539 20.8453 12.4833 19.8971L12.5892 19.5936L12.2731 19.6376C11.6768 19.7165 11.0999 19.8045 10.5482 19.9001Z" fill="#252526"/>
<path d="M27.0147 56.9991C22.8151 56.9991 18.7126 55.7131 15.2409 53.308C11.7693 50.9029 9.08917 47.4902 7.54926 43.5139C6.49301 40.7555 6.00633 37.8056 6.11957 34.8473V34.7139H6.25074C6.93353 34.6987 7.40017 34.6775 7.89064 34.6516L8.03972 34.644V34.7957C7.9139 37.4983 8.34555 40.1977 9.3069 42.7203C10.4633 45.7486 12.3509 48.4312 14.7953 50.5208C17.2398 52.6101 20.1623 54.0388 23.2928 54.675C26.4231 55.3109 29.6608 55.1336 32.706 54.1596C35.7514 53.1856 38.5065 51.4461 40.7166 49.1019C42.4534 47.2696 43.8137 45.1031 44.7179 42.7296C45.6798 40.2065 46.1114 37.5064 45.9852 34.8033V34.6516L46.1343 34.6593C46.8126 34.6941 47.2806 34.7093 47.7742 34.7215H47.9052V34.8549C48.0175 37.8106 47.5307 40.758 46.4756 43.5139C44.9386 47.4913 42.2598 50.9052 38.7884 53.3107C35.3172 55.7161 31.2142 57.0014 27.0147 56.9991Z" fill="#56555C"/>
<path d="M8.09509 37.28C8.02733 36.4315 8.01039 35.5798 8.0444 34.7293V34.5776L7.89532 34.585C7.40485 34.6108 6.93824 34.6307 6.25545 34.6472H6.12426V34.7809C6.09564 35.6345 6.11454 36.4891 6.18091 37.3406H6.24352C6.87413 37.33 7.48983 37.3118 8.07422 37.283L8.09509 37.28Z" fill="#252526"/>
<path d="M47.8996 34.7145H47.7683C47.2748 34.7023 46.8067 34.6887 46.1284 34.6523L45.9793 34.6447V34.7963C46.0134 35.6386 45.9974 36.4821 45.9316 37.3223L47.8458 37.4058C47.9122 36.5549 47.9309 35.7011 47.9025 34.8479L47.8996 34.7145Z" fill="#252526"/>
<path d="M48.9805 35.2145C44.9811 35.2283 40.9972 34.706 37.1316 33.6608C35.4675 33.2132 33.8463 32.6135 32.2881 31.8691L32.2492 31.8403C28.992 30.2518 28.8636 27.0624 29.1663 24.1586C29.2422 23.4256 28.98 22.453 28.2181 21.9388C27.8636 21.6979 27.4471 21.5694 27.0211 21.5694C26.5948 21.5694 26.1783 21.6979 25.8239 21.9388C25.0636 22.453 24.7997 23.421 24.8758 24.1524C25.174 27.0594 25.0502 30.2472 21.7928 31.8356L21.754 31.8538C20.1966 32.6054 18.5754 33.2118 16.9104 33.6654C13.0449 34.7106 9.06099 35.2329 5.06146 35.2191H5.04357C4.23455 35.2096 3.45143 34.9275 2.81671 34.417C2.18199 33.9063 1.7315 33.1959 1.53571 32.3971C0.92299 29.9694 0.0970857 26.3069 0.00167327 22.881C-0.0192572 22.2099 0.156571 21.5476 0.506757 20.9786C0.856945 20.4096 1.36564 19.9595 1.96804 19.6857C6.46729 17.6465 15.5716 16.8894 19.4552 16.9456C20.8834 16.9668 22.1297 17.4903 23.0629 18.4628C24.305 17.8696 25.6567 17.5515 27.0285 17.5297C28.397 17.5514 29.7455 17.8678 30.985 18.4583C31.6454 17.771 32.7993 16.9638 34.5928 16.941C36.9228 16.9076 46.9486 17.3477 52.0799 19.672C52.6823 19.9434 53.1912 20.3917 53.5416 20.9593C53.8919 21.527 54.0677 22.1882 54.0464 22.8582C53.9495 26.2917 53.125 29.9681 52.5122 32.4017C52.3159 33.1999 51.8655 33.9093 51.2312 34.4193C50.5967 34.9291 49.8142 35.211 49.006 35.2207L48.9805 35.2145ZM35.0699 19.9406C33.184 19.9694 32.7963 21.5898 32.7367 21.913C32.4894 23.2636 32.3256 24.6288 32.2463 26.0003C32.2285 27.5662 32.7801 28.6405 33.8862 29.1865C38.0008 31.0543 42.7833 31.9767 48.505 32.0055C48.7205 32.0071 48.9303 31.9357 49.1013 31.8025C49.2725 31.6692 49.3952 31.4819 49.4501 31.2698C49.9942 29.1063 50.7277 25.8897 50.8113 22.934C50.8156 22.796 50.7792 22.6598 50.7069 22.5427C50.6349 22.4256 50.5298 22.3332 50.4058 22.2772C46.4806 20.502 38.1171 19.892 35.0699 19.9406ZM3.63774 22.2832C3.51364 22.3392 3.40876 22.4318 3.33652 22.5487C3.2643 22.6658 3.22798 22.802 3.23225 22.9403C3.31574 25.8897 4.04921 29.1107 4.59335 31.2758C4.64763 31.4874 4.76955 31.6745 4.93986 31.8078C5.11018 31.941 5.31924 32.0127 5.53406 32.0117C11.2602 31.9829 16.0457 31.0589 20.1633 29.1897C21.265 28.6435 21.8151 27.5676 21.8032 25.996C21.7239 24.6262 21.5595 23.2632 21.3112 21.9145C21.2531 21.5898 20.864 19.9694 18.9781 19.9421C17.1892 19.9118 8.05799 20.2789 3.63774 22.2832Z" fill="#252526"/>
<path d="M84.5369 40.5647C84.3329 41.3047 84.0108 42.0056 83.5837 42.639C83.1513 43.2871 82.6171 43.8578 82.0025 44.3284C81.3381 44.8308 80.5981 45.2201 79.8114 45.4808C78.9198 45.774 77.9878 45.9178 77.051 45.9072C75.9431 45.9127 74.8437 45.7103 73.8073 45.3102C72.7946 44.9209 71.8719 44.3222 71.0966 43.5517C70.2952 42.7464 69.6632 41.7825 69.2399 40.7191C68.7689 39.5148 68.5385 38.2265 68.5622 36.93C68.5478 35.6785 68.7782 34.4365 69.2399 33.2769C69.651 32.2386 70.2588 31.2932 71.0289 30.495C71.7608 29.7312 72.6316 29.1205 73.5927 28.6973C74.5559 28.2799 75.5913 28.0653 76.6377 28.0658C79.1979 28.0658 81.1938 28.8395 82.6259 30.3867C84.058 31.9339 84.7718 34.0612 84.7673 36.7687C84.7673 37.0884 84.756 37.3903 84.7334 37.6745C84.7108 37.9586 84.6995 38.1239 84.6995 38.17H72.9309C72.9485 38.6989 73.0797 39.2173 73.3149 39.6888C73.5416 40.1454 73.8477 40.5564 74.2184 40.9012C74.595 41.248 75.0316 41.5202 75.506 41.7032C76.0106 41.9001 76.5471 41.9987 77.0872 41.9936C78.1414 41.9936 78.9607 41.7546 79.5448 41.2768C80.136 40.7984 80.5823 40.1593 80.8324 39.433L84.5369 40.5647ZM80.3896 35.0701C80.3666 34.6554 80.2821 34.2465 80.1389 33.8577C79.9914 33.459 79.7601 33.0978 79.4612 32.7998C79.1369 32.476 78.7531 32.2209 78.3318 32.0485C77.8152 31.844 77.264 31.7454 76.7099 31.7581C76.1818 31.7475 75.6573 31.8521 75.1716 32.0646C74.7517 32.2545 74.3688 32.521 74.0422 32.8505C73.7404 33.1545 73.4967 33.5132 73.3239 33.9084C73.1624 34.2721 73.0659 34.6623 73.0393 35.0608L80.3896 35.0701Z" fill="#252526"/>
<path d="M90.7576 45.1993C90.89 46.0875 91.3289 46.8984 91.9955 47.4856C92.6641 48.0773 93.5338 48.373 94.6045 48.373C96.0095 48.373 97.0908 48.0035 97.8482 47.2644C98.6058 46.5252 98.9821 45.3369 98.9776 43.6989V42.4704C98.5588 43.095 97.9955 43.6048 97.3377 43.9547C96.5848 44.3988 95.606 44.6208 94.4012 44.6208C93.3558 44.6312 92.3194 44.4223 91.3562 44.0077C90.4418 43.6145 89.616 43.0339 88.9302 42.3022C88.2383 41.5559 87.6932 40.6812 87.3241 39.7254C86.5493 37.6608 86.5428 35.3781 87.3061 33.3089C87.6709 32.3464 88.2071 31.4612 88.8873 30.6976C89.5615 29.943 90.3813 29.3389 91.2952 28.9229C92.2742 28.4808 93.3352 28.2591 94.4057 28.2729C95.7203 28.2729 96.7572 28.512 97.5161 28.9897C98.1719 29.3585 98.7181 29.9006 99.0973 30.5593V28.5795H103.389V43.5606C103.394 44.6888 103.23 45.811 102.904 46.8887C102.592 47.9496 102.051 48.9259 101.322 49.7459C100.592 50.566 99.6914 51.2088 98.6862 51.6273C97.4346 52.1468 96.091 52.3962 94.74 52.3602C93.6885 52.3738 92.6422 52.2063 91.6453 51.8647C90.7696 51.5619 89.9496 51.1115 89.2193 50.5326C88.5473 49.9972 87.9801 49.3373 87.5478 48.5873C87.1355 47.88 86.8631 47.0968 86.7459 46.2825L90.7576 45.1993ZM95.1737 40.728C95.6928 40.7471 96.2098 40.6545 96.6912 40.4558C97.1728 40.2574 97.6078 39.9573 97.9679 39.5756C98.6923 38.8074 99.0544 37.7717 99.0544 36.4688C99.0544 35.1659 98.6781 34.1363 97.925 33.3804C97.5681 33.009 97.1412 32.7154 96.6697 32.5172C96.1983 32.3192 95.6926 32.2208 95.1827 32.228C94.6505 32.2231 94.1224 32.3218 93.6264 32.5184C93.1536 32.7078 92.726 32.9987 92.3727 33.3711C92.0081 33.7588 91.7239 34.2172 91.5369 34.7194C91.3307 35.2751 91.2288 35.8654 91.2365 36.4595C91.2365 37.7795 91.6047 38.8203 92.3411 39.5825C92.7109 39.9617 93.1531 40.259 93.6406 40.456C94.1278 40.6531 94.6499 40.7458 95.1737 40.728Z" fill="#252526"/>
<path d="M109.465 45.1993C109.599 46.0851 110.038 46.8933 110.703 47.4788C111.372 48.0704 112.241 48.3661 113.312 48.3661C114.717 48.3661 115.798 47.9966 116.556 47.2575C117.313 46.5184 117.69 45.33 117.685 43.692V42.4636C117.27 43.0884 116.711 43.5998 116.057 43.9525C115.304 44.3966 114.325 44.6185 113.12 44.6185C112.075 44.6289 111.038 44.4201 110.075 44.0055C109.161 43.6123 108.335 43.0317 107.649 42.2999C106.957 41.5537 106.412 40.679 106.043 39.7232C105.268 37.6586 105.262 35.376 106.025 33.3067C106.39 32.3443 106.926 31.459 107.606 30.6954C108.28 29.9408 109.1 29.3368 110.014 28.9208C110.992 28.4794 112.051 28.2577 113.12 28.2708C114.435 28.2708 115.472 28.5098 116.231 28.9876C116.886 29.3564 117.432 29.8984 117.812 30.5571V28.5797H122.104V43.5606C122.108 44.6888 121.944 45.811 121.618 46.8887C121.305 47.9505 120.763 48.9275 120.032 49.7476C119.301 50.5676 118.398 51.2099 117.392 51.6273C116.14 52.1468 114.796 52.3962 113.445 52.3602C112.394 52.3738 111.348 52.2063 110.351 51.8647C109.476 51.5646 108.656 51.1175 107.925 50.5418C107.253 50.0064 106.685 49.3465 106.253 48.5966C105.841 47.8892 105.568 47.1061 105.451 46.2918L109.465 45.1993ZM113.881 40.7281C114.4 40.7472 114.917 40.6546 115.399 40.4559C115.88 40.2575 116.315 39.9574 116.676 39.5757C117.4 38.8075 117.762 37.7718 117.762 36.4689C117.762 35.166 117.386 34.1364 116.633 33.3805C116.276 33.0092 115.849 32.7156 115.377 32.5174C114.906 32.3194 114.4 32.221 113.89 32.2281C113.358 32.2233 112.83 32.3219 112.334 32.5185C111.861 32.708 111.434 32.9988 111.08 33.3713C110.716 33.7589 110.432 34.2173 110.245 34.7196C110.038 35.2752 109.936 35.8655 109.944 36.4597C109.944 37.7796 110.312 38.8204 111.049 39.5826C111.418 39.9615 111.86 40.2586 112.347 40.4557C112.834 40.6527 113.355 40.7456 113.879 40.7281H113.881Z" fill="#252526"/>
<path d="M128.707 45.3696H124.725V20.6578H128.707V29.976C129.24 29.3171 129.945 28.8257 130.74 28.5586C131.515 28.2832 132.328 28.1391 133.148 28.1322C134.083 28.1099 135.013 28.2906 135.874 28.6623C136.604 28.9864 137.255 29.4701 137.781 30.0798C138.299 30.6958 138.684 31.417 138.91 32.1955C139.159 33.037 139.283 33.9117 139.279 34.7907V45.3719H134.833V35.5767C134.863 34.7207 134.609 33.8794 134.113 33.1889C133.634 32.5512 132.859 32.2324 131.788 32.2324C130.852 32.2324 130.116 32.5452 129.581 33.1705C129.034 33.8223 128.726 34.6474 128.707 35.5052V45.3696Z" fill="#252526"/>
<path d="M157.103 40.5642C156.899 41.3043 156.577 42.0052 156.15 42.6385C155.717 43.2866 155.183 43.8573 154.569 44.3279C153.904 44.8304 153.164 45.2196 152.377 45.4803C151.486 45.7735 150.554 45.9173 149.617 45.9067C148.509 45.9122 147.41 45.7099 146.373 45.3097C145.361 44.9205 144.438 44.3217 143.663 43.5512C142.859 42.7383 142.228 41.7655 141.808 40.6933C141.337 39.489 141.107 38.2007 141.131 36.9042C141.116 35.6527 141.347 34.4107 141.808 33.2512C142.219 32.2129 142.827 31.2674 143.597 30.4693C144.34 29.7106 145.221 29.1076 146.19 28.6946C147.154 28.2772 148.189 28.0627 149.235 28.0631C151.796 28.0631 153.792 28.8368 155.224 30.384C156.656 31.9312 157.37 34.0585 157.365 36.7659C157.365 37.0856 157.354 37.3875 157.331 37.6717C157.309 37.9559 157.297 38.1212 157.297 38.1672H145.495C145.512 38.6962 145.644 39.2145 145.879 39.6861C146.106 40.1427 146.412 40.5536 146.782 40.8984C147.159 41.2453 147.595 41.5175 148.07 41.7005C148.574 41.8973 149.111 41.9959 149.651 41.9909C150.705 41.9909 151.525 41.7519 152.109 41.2741C152.7 40.7956 153.146 40.1565 153.396 39.4303L157.103 40.5642ZM152.956 35.0696C152.933 34.655 152.848 34.2461 152.705 33.8573C152.558 33.4586 152.326 33.0974 152.027 32.7994C151.703 32.4756 151.319 32.2205 150.898 32.0481C150.381 31.8436 149.83 31.745 149.276 31.7577C148.748 31.7471 148.223 31.8517 147.738 32.0642C147.318 32.2541 146.935 32.5205 146.608 32.8501C146.307 33.1541 146.063 33.5128 145.89 33.908C145.729 34.2717 145.632 34.6619 145.605 35.0604L152.956 35.0696Z" fill="#252526"/>
<path d="M159.084 40.7949C159.067 40.1385 159.186 39.486 159.434 38.8803C159.682 38.2746 160.053 37.7291 160.522 37.2801C160.975 36.8438 161.503 36.497 162.079 36.2568C162.697 35.9987 163.343 35.8154 164.003 35.7106L168.051 35.0952C168.52 35.0277 168.843 34.8855 169.02 34.6688C169.199 34.455 169.294 34.1821 169.289 33.9014C169.291 33.611 169.231 33.3236 169.114 33.0587C168.997 32.7939 168.826 32.5577 168.611 32.3664C168.16 31.9347 167.463 31.7188 166.52 31.7188C165.538 31.7188 164.785 31.9914 164.261 32.5369C163.754 33.0472 163.44 33.7241 163.375 34.4476L159.425 33.5948C159.501 32.9022 159.705 32.2304 160.026 31.615C160.37 30.9416 160.835 30.3398 161.397 29.8404C162.029 29.2859 162.755 28.8526 163.538 28.5612C164.479 28.2155 165.474 28.0475 166.475 28.0657C167.601 28.0383 168.722 28.2178 169.786 28.5958C170.617 28.8952 171.375 29.3723 172.011 29.9948C172.573 30.5641 172.997 31.2594 173.249 32.0253C173.506 32.8057 173.636 33.6241 173.633 34.4476V42.7078C173.633 43.1688 173.655 43.6521 173.701 44.1575C173.746 44.6629 173.79 45.0672 173.834 45.3698H169.754C169.699 45.0596 169.66 44.7464 169.637 44.4318C169.604 44.0337 169.587 43.6758 169.587 43.3578C169.112 44.0672 168.49 44.6613 167.764 45.0978C166.972 45.5973 165.963 45.8476 164.737 45.8492C163.932 45.8609 163.132 45.7164 162.379 45.4228C161.719 45.1647 161.112 44.7823 160.59 44.2958C160.107 43.8445 159.723 43.2951 159.461 42.6825C159.209 42.0865 159.08 41.4439 159.084 40.7949ZM165.673 42.4681C166.131 42.47 166.587 42.407 167.028 42.2814C167.457 42.1597 167.852 41.938 168.182 41.6338C168.534 41.3017 168.807 40.8937 168.984 40.4399C169.203 39.846 169.305 39.214 169.285 38.58V37.8287L165.571 38.4094C165.039 38.4802 164.536 38.6987 164.116 39.041C163.726 39.3712 163.531 39.8661 163.531 40.5252C163.532 41.0283 163.724 41.5116 164.067 41.8735C164.425 42.2699 164.96 42.4681 165.673 42.4681Z" fill="#252526"/>
<path d="M192.449 42.3321C192.449 42.9006 192.46 43.4637 192.483 44.0215C192.506 44.5792 192.539 45.0287 192.582 45.3698H188.34C188.282 45.1003 188.243 44.8268 188.223 44.5516C188.19 44.1874 188.173 43.8117 188.173 43.4245C187.745 44.1326 187.138 44.7104 186.416 45.0978C185.537 45.5777 184.552 45.816 183.556 45.7892C182.44 45.8028 181.334 45.5758 180.31 45.1231C179.351 44.6956 178.491 44.0676 177.785 43.2793C177.063 42.4627 176.501 41.5129 176.129 40.4813C175.332 38.227 175.327 35.7604 176.113 33.5024C176.472 32.4763 177.018 31.5291 177.724 30.7113C178.672 29.6825 179.868 28.9249 181.193 28.5146C182.517 28.1041 183.924 28.0548 185.273 28.372C185.743 28.4874 186.198 28.6591 186.628 28.8836C186.965 29.0581 187.275 29.2826 187.547 29.5497C187.755 29.7507 187.931 29.9842 188.067 30.2411V20.6578H192.449V42.3321ZM180.005 36.9389C180.005 38.4416 180.39 39.6131 181.159 40.4537C181.535 40.8528 181.985 41.1704 182.484 41.3873C182.982 41.6042 183.519 41.716 184.061 41.716C184.603 41.716 185.139 41.6042 185.638 41.3873C186.137 41.1704 186.587 40.8528 186.962 40.4537C187.743 39.6117 188.132 38.4284 188.132 36.9043C188.132 35.3801 187.743 34.2277 186.962 33.4471C186.582 33.0613 186.132 32.7557 185.636 32.5478C185.14 32.3397 184.609 32.2334 184.073 32.235C183.537 32.2364 183.007 32.3456 182.512 32.5565C182.018 32.7672 181.569 33.0753 181.191 33.4632C180.4 34.2791 180.005 35.4377 180.005 36.9389Z" fill="#252526"/>
<path d="M194.725 43.6066C194.721 43.3782 194.762 43.1511 194.846 42.9393C194.93 42.7275 195.054 42.5351 195.213 42.3735C195.366 42.2088 195.552 42.0783 195.758 41.9905C195.963 41.9029 196.185 41.8598 196.408 41.8642C196.861 41.8642 197.295 42.0477 197.615 42.3745C197.936 42.7013 198.115 43.1445 198.115 43.6066C198.12 43.834 198.078 44.0599 197.992 44.2699C197.906 44.4796 197.778 44.669 197.616 44.8258C197.458 44.9873 197.27 45.1148 197.062 45.2003C196.854 45.2858 196.632 45.3277 196.408 45.3236C196.186 45.3256 195.966 45.2828 195.761 45.1973C195.556 45.1118 195.37 44.9852 195.213 44.8255C195.056 44.6656 194.932 44.4754 194.849 44.2662C194.765 44.0569 194.723 43.8327 194.725 43.6066Z" fill="#252526"/>
<path d="M200.311 25.2999C200.311 24.6428 200.566 24.0127 201.022 23.548C201.477 23.0834 202.095 22.8223 202.739 22.8223C203.383 22.8223 204.001 23.0834 204.456 23.548C204.911 24.0127 205.167 24.6428 205.167 25.2999C205.167 25.957 204.911 26.5871 204.456 27.0518C204.001 27.5164 203.383 27.7775 202.739 27.7775C202.095 27.7775 201.477 27.5164 201.022 27.0518C200.566 26.5871 200.311 25.957 200.311 25.2999ZM200.697 45.3514V29.5015H204.781V45.3491L200.697 45.3514Z" fill="#252526"/>
<path d="M206.918 37.4092C206.918 32.9149 210.006 29.1121 215.118 29.1121C220.23 29.1121 223.351 32.9126 223.351 37.4092C223.351 41.9058 220.263 45.7433 215.12 45.7433C209.976 45.7433 206.918 41.9035 206.918 37.4092ZM219.116 37.4092C219.116 34.9477 217.702 32.8158 215.129 32.8158C212.556 32.8158 211.153 34.9477 211.153 37.4092C211.153 39.8707 212.567 42.0349 215.109 42.0349C217.65 42.0349 219.107 39.903 219.107 37.4092H219.116Z" fill="#252526"/>
<path d="M70.4215 18.5118H69.377V7.41576H70.4215V8.68523H70.4675C70.7646 8.20461 71.1587 7.84415 71.6503 7.60383C72.152 7.35307 72.6589 7.22769 73.1709 7.22769C73.7341 7.22769 74.241 7.32696 74.6916 7.52547C75.1524 7.72398 75.5416 7.99564 75.859 8.34043C76.1868 8.68523 76.4375 9.09271 76.6117 9.56288C76.796 10.0331 76.8881 10.5398 76.8881 11.0831C76.8881 11.6264 76.796 12.1332 76.6117 12.6033C76.4375 13.0735 76.1868 13.481 75.859 13.8258C75.5416 14.1706 75.1524 14.4422 74.6916 14.6408C74.241 14.8393 73.7341 14.9385 73.1709 14.9385C72.6589 14.9385 72.152 14.8184 71.6503 14.5781C71.1587 14.3273 70.7646 13.9721 70.4675 13.5123H70.4215V18.5118ZM75.7822 11.0831C75.7822 10.6756 75.7208 10.2943 75.5979 9.93902C75.475 9.57332 75.2959 9.25987 75.0603 8.99868C74.8351 8.72701 74.5534 8.51283 74.2155 8.35611C73.8775 8.19938 73.4935 8.12102 73.0634 8.12102C72.6641 8.12102 72.2954 8.19938 71.9575 8.35611C71.6196 8.50239 71.3277 8.71134 71.0819 8.983C70.8362 9.2442 70.6417 9.55765 70.4983 9.92335C70.3652 10.2786 70.2986 10.6652 70.2986 11.0831C70.2986 11.501 70.3652 11.8928 70.4983 12.2585C70.6417 12.6138 70.8362 12.922 71.0819 13.1832C71.3277 13.4444 71.6196 13.6534 71.9575 13.8101C72.2954 13.9564 72.6641 14.0295 73.0634 14.0295C73.4935 14.0295 73.8775 13.9564 74.2155 13.8101C74.5534 13.6534 74.8351 13.4444 75.0603 13.1832C75.2959 12.9116 75.475 12.5981 75.5979 12.2429C75.7208 11.8772 75.7822 11.4906 75.7822 11.0831ZM85.6553 11.0831C85.6553 11.6369 85.5579 12.1488 85.3634 12.619C85.1791 13.0892 84.918 13.4967 84.5801 13.8415C84.2421 14.1863 83.8376 14.4579 83.3666 14.6564C82.8956 14.8445 82.3783 14.9385 81.8152 14.9385C81.2622 14.9385 80.7501 14.8445 80.2792 14.6564C79.8082 14.4579 79.4036 14.1863 79.0657 13.8415C78.7278 13.4967 78.4615 13.0892 78.267 12.619C78.0826 12.1488 77.9905 11.6369 77.9905 11.0831C77.9905 10.5293 78.0826 10.0174 78.267 9.54721C78.4615 9.07704 78.7278 8.66955 79.0657 8.32476C79.4036 7.97997 79.8082 7.71354 80.2792 7.52547C80.7501 7.32696 81.2622 7.22769 81.8152 7.22769C82.3783 7.22769 82.8956 7.32696 83.3666 7.52547C83.8376 7.71354 84.2421 7.97997 84.5801 8.32476C84.918 8.66955 85.1791 9.07704 85.3634 9.54721C85.5579 10.0174 85.6553 10.5293 85.6553 11.0831ZM84.5493 11.0831C84.5493 10.6756 84.4827 10.2943 84.3496 9.93902C84.2268 9.57332 84.0476 9.25987 83.812 8.99868C83.5764 8.72701 83.2898 8.51283 82.9519 8.35611C82.6139 8.19938 82.2351 8.12102 81.8152 8.12102C81.3953 8.12102 81.0165 8.19938 80.6785 8.35611C80.3508 8.51283 80.0693 8.72701 79.8337 8.99868C79.5981 9.25987 79.4138 9.57332 79.2807 9.93902C79.1579 10.2943 79.0964 10.6756 79.0964 11.0831C79.0964 11.4906 79.1579 11.8772 79.2807 12.2429C79.4138 12.5981 79.5981 12.9116 79.8337 13.1832C80.0693 13.4444 80.3508 13.6534 80.6785 13.8101C81.0165 13.9564 81.3953 14.0295 81.8152 14.0295C82.2351 14.0295 82.6139 13.9564 82.9519 13.8101C83.2898 13.6534 83.5764 13.4444 83.812 13.1832C84.0476 12.9116 84.2268 12.5981 84.3496 12.2429C84.4827 11.8772 84.5493 11.4906 84.5493 11.0831ZM87.4267 7.41576L89.1624 13.3713H89.1931L91.1285 7.41576H92.1423L94.1084 13.3713H94.1391L95.8595 7.41576H96.9654L94.6921 14.7505H93.5554L91.6354 8.81061H91.6047L89.7154 14.7505H88.5787L86.3054 7.41576H87.4267ZM103.618 10.5189C103.587 9.82931 103.367 9.25988 102.958 8.81061C102.558 8.35087 101.985 8.12102 101.237 8.12102C100.889 8.12102 100.566 8.18894 100.269 8.32476C99.9724 8.45014 99.7113 8.62777 99.4861 8.85762C99.2607 9.07704 99.0815 9.33303 98.9485 9.62557C98.8152 9.90768 98.7384 10.2055 98.7181 10.5189H103.618ZM104.678 10.8637V11.0988C104.678 11.1824 104.673 11.2712 104.663 11.3652H98.7027C98.7129 11.7309 98.7845 12.0757 98.9178 12.3996C99.0508 12.7235 99.2351 13.0056 99.4707 13.2459C99.7061 13.4862 99.9826 13.6795 100.3 13.8258C100.618 13.9616 100.961 14.0295 101.329 14.0295C101.872 14.0295 102.338 13.9041 102.727 13.6534C103.126 13.3922 103.429 13.0944 103.633 12.7601L104.417 13.387C103.987 13.9407 103.511 14.3377 102.988 14.5781C102.476 14.8184 101.923 14.9385 101.329 14.9385C100.797 14.9385 100.3 14.8445 99.8394 14.6564C99.3887 14.4579 98.9995 14.1863 98.672 13.8415C98.3442 13.4967 98.0831 13.0892 97.8886 12.619C97.7043 12.1488 97.6121 11.6369 97.6121 11.0831C97.6121 10.5293 97.7043 10.0174 97.8886 9.54721C98.073 9.07704 98.3289 8.66955 98.6566 8.32476C98.9842 7.97997 99.3682 7.71354 99.8087 7.52547C100.249 7.32696 100.725 7.22769 101.237 7.22769C101.8 7.22769 102.297 7.32696 102.727 7.52547C103.157 7.71354 103.515 7.97474 103.802 8.30909C104.089 8.63298 104.304 9.01435 104.447 9.45318C104.601 9.892 104.678 10.3622 104.678 10.8637ZM106.31 9.03002C106.31 8.83151 106.305 8.57552 106.295 8.26207C106.284 7.94862 106.269 7.66652 106.249 7.41576H107.247C107.267 7.61427 107.283 7.83368 107.293 8.074C107.303 8.31432 107.309 8.51283 107.309 8.66955H107.339C107.544 8.24117 107.851 7.89637 108.261 7.63517C108.67 7.36351 109.131 7.22769 109.643 7.22769C109.776 7.22769 109.894 7.23292 109.997 7.24336C110.109 7.2538 110.222 7.27471 110.335 7.30605L110.196 8.30909C110.135 8.28818 110.032 8.2673 109.889 8.2464C109.746 8.22549 109.602 8.21505 109.459 8.21505C109.183 8.21505 108.916 8.2673 108.66 8.37178C108.404 8.47625 108.179 8.64344 107.984 8.8733C107.8 9.09271 107.646 9.38005 107.524 9.73528C107.411 10.0801 107.355 10.498 107.355 10.9891V14.7505H106.31V9.03002ZM116.444 10.5189C116.414 9.82931 116.194 9.25988 115.784 8.81061C115.384 8.35087 114.811 8.12102 114.063 8.12102C113.715 8.12102 113.393 8.18894 113.096 8.32476C112.799 8.45014 112.538 8.62777 112.312 8.85762C112.087 9.07704 111.908 9.33303 111.775 9.62557C111.642 9.90768 111.565 10.2055 111.544 10.5189H116.444ZM117.504 10.8637V11.0988C117.504 11.1824 117.499 11.2712 117.489 11.3652H111.529C111.539 11.7309 111.611 12.0757 111.744 12.3996C111.877 12.7235 112.062 13.0056 112.297 13.2459C112.533 13.4862 112.809 13.6795 113.127 13.8258C113.444 13.9616 113.787 14.0295 114.156 14.0295C114.698 14.0295 115.164 13.9041 115.553 13.6534C115.953 13.3922 116.255 13.0944 116.46 12.7601L117.243 13.387C116.813 13.9407 116.337 14.3377 115.815 14.5781C115.303 14.8184 114.75 14.9385 114.156 14.9385C113.623 14.9385 113.127 14.8445 112.666 14.6564C112.215 14.4579 111.826 14.1863 111.498 13.8415C111.171 13.4967 110.91 13.0892 110.715 12.619C110.531 12.1488 110.438 11.6369 110.438 11.0831C110.438 10.5293 110.531 10.0174 110.715 9.54721C110.899 9.07704 111.155 8.66955 111.483 8.32476C111.811 7.97997 112.195 7.71354 112.635 7.52547C113.075 7.32696 113.552 7.22769 114.063 7.22769C114.627 7.22769 115.123 7.32696 115.553 7.52547C115.984 7.71354 116.342 7.97474 116.629 8.30909C116.916 8.63298 117.131 9.01435 117.274 9.45318C117.427 9.892 117.504 10.3622 117.504 10.8637ZM125.05 13.5123C124.743 13.9825 124.344 14.3377 123.852 14.5781C123.361 14.8184 122.854 14.9385 122.331 14.9385C121.768 14.9385 121.256 14.8393 120.795 14.6408C120.345 14.4422 119.956 14.1706 119.628 13.8258C119.311 13.481 119.06 13.0735 118.875 12.6033C118.701 12.1332 118.614 11.6264 118.614 11.0831C118.614 10.5398 118.701 10.0331 118.875 9.56288C119.06 9.09271 119.311 8.68523 119.628 8.34043C119.956 7.99564 120.345 7.72398 120.795 7.52547C121.256 7.32696 121.768 7.22769 122.331 7.22769C122.854 7.22769 123.361 7.35307 123.852 7.60383C124.344 7.84415 124.743 8.20461 125.05 8.68523H125.081V2.9021H126.125V14.7505H125.081V13.5123H125.05ZM119.72 11.0831C119.72 11.4906 119.782 11.8772 119.904 12.2429C120.027 12.5981 120.202 12.9116 120.427 13.1832C120.662 13.4444 120.949 13.6534 121.287 13.8101C121.625 13.9564 122.009 14.0295 122.439 14.0295C122.838 14.0295 123.207 13.9564 123.545 13.8101C123.883 13.6534 124.175 13.4444 124.42 13.1832C124.666 12.922 124.856 12.6138 124.989 12.2585C125.132 11.8928 125.204 11.501 125.204 11.0831C125.204 10.6652 125.132 10.2786 124.989 9.92335C124.856 9.55765 124.666 9.2442 124.42 8.983C124.175 8.71134 123.883 8.50239 123.545 8.35611C123.207 8.19938 122.838 8.12102 122.439 8.12102C122.009 8.12102 121.625 8.19938 121.287 8.35611C120.949 8.51283 120.662 8.72701 120.427 8.99868C120.202 9.25987 120.027 9.57332 119.904 9.93902C119.782 10.2943 119.72 10.6756 119.72 11.0831ZM132.603 13.5123V14.7505H131.559V2.9021H132.603V8.68523H132.634C132.941 8.20461 133.34 7.84415 133.832 7.60383C134.324 7.35307 134.83 7.22769 135.353 7.22769C135.916 7.22769 136.423 7.32696 136.873 7.52547C137.334 7.72398 137.723 7.99564 138.041 8.34043C138.368 8.68523 138.619 9.09271 138.793 9.56288C138.978 10.0331 139.07 10.5398 139.07 11.0831C139.07 11.6264 138.978 12.1332 138.793 12.6033C138.619 13.0735 138.368 13.481 138.041 13.8258C137.723 14.1706 137.334 14.4422 136.873 14.6408C136.423 14.8393 135.916 14.9385 135.353 14.9385C134.83 14.9385 134.324 14.8184 133.832 14.5781C133.34 14.3377 132.941 13.9825 132.634 13.5123H132.603ZM137.964 11.0831C137.964 10.6756 137.902 10.2943 137.78 9.93902C137.657 9.57332 137.478 9.25987 137.242 8.99868C137.017 8.72701 136.735 8.51283 136.397 8.35611C136.059 8.19938 135.675 8.12102 135.245 8.12102C134.846 8.12102 134.477 8.19938 134.139 8.35611C133.801 8.50239 133.509 8.71134 133.264 8.983C133.018 9.2442 132.823 9.55765 132.68 9.92335C132.547 10.2786 132.48 10.6652 132.48 11.0831C132.48 11.501 132.547 11.8928 132.68 12.2585C132.823 12.6138 133.018 12.922 133.264 13.1832C133.509 13.4444 133.801 13.6534 134.139 13.8101C134.477 13.9564 134.846 14.0295 135.245 14.0295C135.675 14.0295 136.059 13.9564 136.397 13.8101C136.735 13.6534 137.017 13.4444 137.242 13.1832C137.478 12.9116 137.657 12.5981 137.78 12.2429C137.902 11.8772 137.964 11.4906 137.964 11.0831ZM143.167 13.6064H143.197L145.425 7.41576H146.561L142.982 16.6468C142.767 17.211 142.491 17.6603 142.153 17.9946C141.825 18.3394 141.349 18.5118 140.724 18.5118C140.407 18.5118 140.095 18.4805 139.788 18.4178L139.895 17.4461C140.141 17.5297 140.397 17.5715 140.663 17.5715C141.022 17.5715 141.303 17.4566 141.508 17.2267C141.713 17.0073 141.892 16.6886 142.045 16.2707L142.629 14.7348L139.557 7.41576H140.724L143.167 13.6064Z" fill="#777883"/>
</svg>
