<svg xmlns="http://www.w3.org/2000/svg" width="224" height="57" viewBox="0 0 224 57">
  <g fill="none" transform="translate(0 -5)">
    <path fill="#FCFBFA" d="M27.0129,6.75562 C37.6124,6.75562 46.1979,29.9329 46.1979,40.7204 C46.1979,43.2847 45.7016,45.8237 44.7375,48.1928 C43.7732,50.5617 42.3601,52.7144 40.5785,54.5276 C38.7969,56.3406 36.6819,57.779 34.3542,58.7602 C32.0264,59.7416 29.5315,60.2465 27.012,60.2465 C24.4924,60.2465 21.9977,59.7416 19.6699,58.7602 C17.3422,57.779 15.2272,56.3406 13.4456,54.5276 C11.664,52.7144 10.2508,50.5617 9.28662,48.1928 C8.32244,45.8237 7.82617,43.2847 7.82617,40.7204 C7.82617,29.9329 16.4162,6.75562 27.0129,6.75562 Z"/>
    <path fill="#252526" d="M51.3385 25.4616L43.5117 28.2716C43.5117 28.2716 44.7238 32.0207 44.7342 32.0465 44.7446 32.0723 52.5296 31.0255 52.5296 31.0255L51.3385 25.4616zM2.68334 25.4616L10.5101 28.2716C10.5101 28.2716 9.29805 32.0207 9.28761 32.0465 9.27718 32.0723 1.49219 31.0255 1.49219 31.0255L2.68334 25.4616z"/>
    <path fill="#E0E0E0" d="M18.9598 24.7987C20.9262 24.829 21.3555 26.4934 21.4271 26.8894 21.6749 28.2461 21.8383 29.6175 21.9161 30.995 21.9233 31.3806 21.8888 31.7658 21.8132 32.1435 21.7148 31.1513 21.5762 30.2045 21.4271 29.3838 21.3555 28.9892 20.9262 27.3233 18.9598 27.2931 17.7672 27.2749 13.9582 27.4143 10.1641 27.9728 10.4384 27.1018 10.735 26.2264 11.0585 25.354 13.6791 25.0091 16.3175 24.8237 18.9598 24.7987zM46.1619 39.8524C39.252 39.4898 33.3501 37.249 32.0173 36.4342 30.9737 35.9274 29.6543 34.8578 29.2726 32.1862 29.0178 35.1369 29.5708 37.827 32.287 39.1545 32.4883 39.2773 37.7018 41.9036 46.1126 42.3528 46.156 41.8155 46.1797 41.2739 46.1797 40.7247 46.1813 40.438 46.1738 40.1483 46.1619 39.8524zM7.88331 39.8524C14.7932 39.4898 20.6953 37.249 22.0281 36.4342 23.0717 35.9274 24.3911 34.8578 24.7726 32.1862 25.0276 35.1369 24.4744 37.827 21.7583 39.1545 21.557 39.2773 16.3437 41.9036 7.93251 42.3528 7.88928 41.8155 7.86542 41.2739 7.86542 40.7247 7.86393 40.438 7.87139 40.1483 7.88331 39.8524zM35.0473 24.7987C33.081 24.829 32.6516 26.4934 32.5802 26.8894 32.3349 28.2456 32.174 29.6165 32.0986 30.9934 32.0914 31.379 32.1259 31.7641 32.2014 32.1421 32.2999 31.1496 32.4386 30.2031 32.5876 29.3821 32.659 28.9878 33.0884 27.3219 35.0548 27.2915 36.2475 27.2732 40.0566 27.4129 43.8506 27.9711 43.5764 27.1003 43.2795 26.2249 42.9561 25.3525 40.3331 25.0078 37.692 24.8229 35.0473 24.7987z"/>
    <path fill="#56555C" d="M10.232 22.6852C12.1224 18.0333 14.3765 14.01709 16.7722 11.0554 20.0236 7.03767 23.4734 5 27.0155 5 30.5577 5 34.0013 7.03618 37.2572 11.05388 39.6559 14.01407 41.9175 18.0333 43.7973 22.6852L43.89 22.9113 43.6514 22.8794C42.988 22.7899 42.4452 22.7277 41.7833 22.6519L41.7029 22.6427 41.6702 22.5669C39.5532 17.5311 35.932 10.95526 31.2568 8.20598 29.8436 7.37453 28.4154 6.95272 27.0155 6.95272 25.6157 6.95272 24.1829 7.37453 22.7741 8.20598 18.1064 10.95072 14.4972 17.5038 12.3624 22.5669L12.3296 22.6427 12.2491 22.6519C11.5842 22.7247 11.0415 22.7899 10.3811 22.8794L10.1426 22.9113 10.232 22.6852zM46.3826 37.4205C45.8638 37.4067 45.339 37.3855 44.8202 37.3553L44.6593 37.3461 44.6383 37.1838C44.1777 33.4816 43.1253 29.1423 41.6763 24.9821L41.5703 24.6787 41.885 24.7212C42.4811 24.8031 43.0596 24.8911 43.6112 24.9867L43.7246 25.0064 43.7619 25.1172C45.1527 29.276 46.147 33.5667 46.578 37.2004L46.6047 37.4265 46.3826 37.4205z"/>
    <path fill="#252526" d="M44.6695,28.041 C44.3894,27.0654 44.0867,26.0882 43.7617,25.1172 L43.7244,25.0064 L43.6112,24.9867 C43.0596,24.8911 42.4782,24.8031 41.8847,24.7212 L41.5703,24.6787 L41.676,24.9821 C41.9981,25.9062 42.2977,26.8378 42.578,27.7694 C43.5843,27.8847 44.1538,27.9667 44.6695,28.041 Z"/>
    <path fill="#56555C" d="M7.57759,37.1154 C8.00249,33.4741 9.0028,29.1896 10.3937,25.0325 L10.431,24.9218 L10.5443,24.902 C11.0959,24.808 11.6758,24.7185 12.2707,24.6365 L12.5852,24.5941 L12.4794,24.8975 C11.0288,29.0621 9.9778,33.3939 9.51715,37.0988 L9.49627,37.261 L9.33526,37.2702 C8.81647,37.3007 8.29169,37.3219 7.77439,37.3355 L7.55078,37.3355 L7.57759,37.1154 Z"/>
    <path fill="#252526" d="M10.5482,24.9005 L10.4349,24.9202 L10.3977,25.031 C10.0727,26.0034 9.76854,26.9835 9.48828,27.9605 C10.4618,27.8346 10.745,27.8499 11.5575,27.7618 C11.8438,26.8045 12.1539,25.8457 12.4833,24.8975 L12.5892,24.5941 L12.2731,24.638 C11.6768,24.7169 11.0999,24.8049 10.5482,24.9005 Z"/>
    <path fill="#56555C" d="M27.0147,61.9999 C22.8151,61.9999 18.7126,60.7138 15.2409,58.3087 C11.7693,55.9036 9.08917,52.4908 7.54926,48.5145 C6.49301,45.756 6.00633,42.806 6.11957,39.8478 L6.11957,39.7143 L6.25074,39.7143 C6.93353,39.6991 7.40017,39.6779 7.89064,39.6521 L8.03972,39.6445 L8.03972,39.7961 C7.9139,42.4988 8.34555,45.1982 9.3069,47.7209 C10.4633,50.7492 12.3509,53.4319 14.7953,55.5214 C17.2398,57.6108 20.1623,59.0396 23.2928,59.6757 C26.4231,60.3116 29.6608,60.1344 32.706,59.1603 C35.7514,58.1863 38.5065,56.4468 40.7166,54.1026 C42.4534,52.2702 43.8137,50.1037 44.7179,47.7301 C45.6798,45.207 46.1114,42.5069 45.9852,39.8037 L45.9852,39.6521 L46.1343,39.6597 C46.8126,39.6945 47.2806,39.7097 47.7742,39.7219 L47.9052,39.7219 L47.9052,39.8554 C48.0175,42.8111 47.5307,45.7585 46.4756,48.5145 C44.9386,52.4919 42.2598,55.9059 38.7884,58.3115 C35.3172,60.7168 31.2142,62.0022 27.0147,61.9999 Z"/>
    <path fill="#252526" d="M8.09509 42.2807C8.02733 41.4322 8.01039 40.5804 8.0444 39.7299L8.0444 39.5782 7.89532 39.5856C7.40485 39.6114 6.93824 39.6312 6.25545 39.6478L6.12426 39.6478 6.12426 39.7815C6.09564 40.6351 6.11454 41.4898 6.18091 42.3413L6.24352 42.3413C6.87413 42.3307 7.48983 42.3125 8.07422 42.2837L8.09509 42.2807zM47.8996 39.7152L47.7683 39.7152C47.2748 39.7029 46.8067 39.6893 46.1284 39.6529L45.9793 39.6453 45.9793 39.797C46.0134 40.6393 45.9974 41.4828 45.9316 42.323L47.8458 42.4065C47.9122 41.5556 47.9309 40.7018 47.9025 39.8486L47.8996 39.7152z"/>
    <path fill="#252526" d="M48.9805,40.215 C44.9811,40.2288 40.9972,39.7066 37.1316,38.6613 C35.4675,38.2137 33.8463,37.614 32.2881,36.8696 L32.2492,36.8407 C28.992,35.2523 28.8636,32.0628 29.1663,29.159 C29.2422,28.426 28.98,27.4534 28.2181,26.9392 C27.8636,26.6983 27.4471,26.5698 27.0211,26.5698 C26.5948,26.5698 26.1783,26.6983 25.8239,26.9392 C25.0636,27.4534 24.7997,28.4214 24.8758,29.1527 C25.174,32.0598 25.0502,35.2476 21.7928,36.8361 L21.754,36.8543 C20.1966,37.6059 18.5754,38.2123 16.9104,38.6659 C13.0449,39.7112 9.06099,40.2335 5.06146,40.2196 L5.04357,40.2196 C4.23455,40.2102 3.45143,39.9281 2.81671,39.4175 C2.18199,38.9068 1.7315,38.1964 1.53571,37.3976 C0.92299,34.9699 0.0970857,31.3073 0.00167327,27.8814 C-0.0192572,27.2102 0.156571,26.548 0.506757,25.9789 C0.856945,25.4099 1.36564,24.9598 1.96804,24.686 C6.46729,22.6469 15.5716,21.8897 19.4552,21.9459 C20.8834,21.9671 22.1297,22.4906 23.0629,23.4631 C24.305,22.8699 25.6567,22.5518 27.0285,22.53 C28.397,22.5517 29.7455,22.8682 30.985,23.4586 C31.6454,22.7713 32.7993,21.9641 34.5928,21.9413 C36.9228,21.9079 46.9486,22.348 52.0799,24.6724 C52.6823,24.9438 53.1912,25.392 53.5416,25.9597 C53.8919,26.5274 54.0677,27.1886 54.0464,27.8586 C53.9495,31.2921 53.125,34.9685 52.5122,37.4022 C52.3159,38.2004 51.8655,38.9098 51.2312,39.4199 C50.5967,39.9297 49.8142,40.2116 49.006,40.2212 L48.9805,40.215 Z M35.0699,24.9409 C33.184,24.9698 32.7963,26.5902 32.7367,26.9134 C32.4894,28.264 32.3256,29.6292 32.2463,31.0008 C32.2285,32.5667 32.7801,33.6409 33.8862,34.187 C38.0008,36.0548 42.7833,36.9772 48.505,37.006 C48.7205,37.0076 48.9303,36.9362 49.1013,36.8029 C49.2725,36.6697 49.3952,36.4823 49.4501,36.2703 C49.9942,34.1068 50.7277,30.8901 50.8113,27.9344 C50.8156,27.7964 50.7792,27.6601 50.7069,27.5431 C50.6349,27.426 50.5298,27.3335 50.4058,27.2775 C46.4806,25.5023 38.1171,24.8924 35.0699,24.9409 Z M3.63774,27.2835 C3.51364,27.3395 3.40876,27.4322 3.33652,27.549 C3.2643,27.6661 3.22798,27.8023 3.23225,27.9406 C3.31574,30.8901 4.04921,34.1111 4.59335,36.2763 C4.64763,36.4879 4.76955,36.675 4.93986,36.8082 C5.11018,36.9415 5.31924,37.0131 5.53406,37.0122 C11.2602,36.9834 16.0457,36.0594 20.1633,34.1902 C21.265,33.6439 21.8151,32.568 21.8032,30.9964 C21.7239,29.6266 21.5595,28.2635 21.3112,26.9149 C21.2531,26.5902 20.864,24.9698 18.9781,24.9425 C17.1892,24.9121 8.05799,25.2793 3.63774,27.2835 Z"/>
    <g fill="#252526" transform="translate(68)">
      <path d="M16.5369 48.5654C16.3329 49.3054 16.0108 50.0063 15.5837 50.6397 15.1513 51.2878 14.6171 51.8585 14.0025 52.3291 13.3381 52.8316 12.5981 53.2209 11.8114 53.4815 10.9198 53.7747 9.9878 53.9185 9.051 53.9079 7.9431 53.9134 6.8437 53.7111 5.8073 53.311 4.7946 52.9217 3.8719 52.3229 3.0966 51.5524 2.2952 50.7471 1.6632 49.7832 1.2399 48.7198.7689 47.5155.5385 46.2271.5622 44.9307.5478 43.6791.7782 42.4371 1.2399 41.2775 1.651 40.2392 2.2588 39.2938 3.0289 38.4956 3.7608 37.7318 4.6316 37.121 5.5927 36.6979 6.5559 36.2805 7.5913 36.0659 8.6377 36.0663 11.1979 36.0663 13.1938 36.8401 14.6259 38.3873 16.058 39.9345 16.7718 42.0619 16.7673 44.7693 16.7673 45.089 16.756 45.3909 16.7334 45.6751 16.7108 45.9593 16.6995 46.1246 16.6995 46.1707L4.9309 46.1707C4.9485 46.6996 5.0797 47.218 5.3149 47.6895 5.5416 48.1461 5.8477 48.5571 6.2184 48.9019 6.595 49.2487 7.0316 49.5209 7.506 49.7039 8.0106 49.9008 8.5471 49.9994 9.0872 49.9943 10.1414 49.9943 10.9607 49.7553 11.5448 49.2775 12.136 48.7991 12.5823 48.1599 12.8324 47.4337L16.5369 48.5654zM12.3896 43.0707C12.3666 42.656 12.2821 42.2472 12.1389 41.8583 11.9914 41.4596 11.7601 41.0984 11.4612 40.8004 11.1369 40.4766 10.7531 40.2215 10.3318 40.0491 9.8152 39.8446 9.264 39.746 8.7099 39.7587 8.1818 39.7481 7.6573 39.8527 7.1716 40.0652 6.7517 40.2551 6.3688 40.5216 6.0422 40.8511 5.7404 41.1551 5.4967 41.5138 5.3239 41.9091 5.1624 42.2728 5.0659 42.663 5.0393 43.0615L12.3896 43.0707zM22.7576 53.1999C22.89 54.0882 23.3289 54.899 23.9955 55.4863 24.6641 56.0779 25.5338 56.3737 26.6045 56.3737 28.0095 56.3737 29.0908 56.0042 29.8482 55.265 30.6058 54.5259 30.9821 53.3375 30.9776 51.6995L30.9776 50.471C30.5588 51.0956 29.9955 51.6055 29.3377 51.9553 28.5848 52.3995 27.606 52.6214 26.4012 52.6214 25.3558 52.6318 24.3194 52.423 23.3562 52.0084 22.4418 51.6152 21.616 51.0346 20.9302 50.3028 20.2383 49.5565 19.6932 48.6818 19.3241 47.726 18.5493 45.6614 18.5428 43.3787 19.3061 41.3094 19.6709 40.347 20.2071 39.4617 20.8873 38.6981 21.5615 37.9435 22.3813 37.3394 23.2952 36.9234 24.2742 36.4813 25.3352 36.2596 26.4057 36.2734 27.7203 36.2734 28.7572 36.5124 29.5161 36.9902 30.1719 37.359 30.7181 37.9011 31.0973 38.5598L31.0973 36.58 35.389 36.58 35.389 51.5612C35.394 52.6894 35.23 53.8116 34.904 54.8894 34.592 55.9503 34.051 56.9266 33.322 57.7466 32.592 58.5667 31.6914 59.2095 30.6862 59.628 29.4346 60.1475 28.091 60.3969 26.74 60.361 25.6885 60.3746 24.6422 60.207 23.6453 59.8654 22.7696 59.5626 21.9496 59.1122 21.2193 58.5333 20.5473 57.9979 19.9801 57.338 19.5478 56.588 19.1355 55.8807 18.8631 55.0975 18.7459 54.2832L22.7576 53.1999zM27.1737 48.7286C27.6928 48.7477 28.2098 48.6551 28.6912 48.4564 29.1728 48.258 29.6078 47.9579 29.9679 47.5762 30.6923 46.808 31.0544 45.7722 31.0544 44.4693 31.0544 43.1664 30.6781 42.1369 29.925 41.3809 29.5681 41.0096 29.1412 40.716 28.6697 40.5177 28.1983 40.3198 27.6926 40.2213 27.1827 40.2285 26.6505 40.2236 26.1224 40.3223 25.6264 40.5189 25.1536 40.7083 24.726 40.9992 24.3727 41.3717 24.0081 41.7593 23.7239 42.2178 23.5369 42.72 23.3307 43.2757 23.2288 43.8659 23.2365 44.4601 23.2365 45.7801 23.6047 46.8209 24.3411 47.5831 24.7109 47.9623 25.1531 48.2596 25.6406 48.4566 26.1278 48.6537 26.6499 48.7464 27.1737 48.7286z"/>
      <path d="M3.22,20.66 L3.22,26.62 C3.22,26.84 3.08,27 2.8,27 L1.68,27 C1.48,27 1.3,26.82 1.3,26.62 L1.3,13.38 C1.3,13.18 1.48,13 1.68,13 L2.28,13 C2.44,13 2.54,13.08 2.62,13.26 L2.82,13.78 C2.96,13.64 3.78,12.8 5.26,12.8 C7.46,12.8 9.08,14.72 9.08,17.02 C9.08,19.36 7.36,21.2 5.18,21.2 C4.14,21.2 3.36,20.74 3.22,20.66 Z M3.18,18.9 C3.18,18.9 3.88,19.48 4.94,19.48 C6.26,19.48 7.22,18.38 7.22,17.02 C7.22,15.68 6.38,14.54 5.02,14.54 C3.86,14.54 3.26,15.46 3.18,15.7 L3.18,18.9 Z M10.5,16.98 C10.5,14.72 12.3,12.8 14.54,12.8 C16.78,12.8 18.58,14.72 18.58,16.98 C18.58,19.28 16.78,21.2 14.54,21.2 C12.3,21.2 10.5,19.28 10.5,16.98 Z M12.28,16.98 C12.28,18.36 13.28,19.48 14.54,19.48 C15.8,19.48 16.8,18.36 16.8,16.98 C16.8,15.64 15.8,14.54 14.54,14.54 C13.28,14.54 12.28,15.64 12.28,16.98 Z M22.2,21 L19.82,13.46 C19.7,13.2 19.82,13 20.1,13 L21.18,13 C21.32,13 21.5,13.1 21.54,13.24 L22.88,17.66 L22.9,17.66 L25.04,13 C25.08,12.9 25.22,12.8 25.38,12.8 L25.5,12.8 C25.68,12.8 25.8,12.9 25.84,13 L27.96,17.68 L27.98,17.68 L29.3,13.24 C29.4,13 29.7,13 29.92,13 L30.7,13 C30.98,13 31.12,13.2 31,13.46 L28.66,21 C28.62,21.12 28.48,21.2 28.3,21.2 L28.22,21.2 C28.06,21.2 27.92,21.12 27.88,21.02 L25.42,15.68 L25.4,15.68 L22.96,21.02 C22.92,21.12 22.8,21.2 22.64,21.2 L22.54,21.2 C22.38,21.2 22.24,21.12 22.2,21 Z M32.26,17 C32.26,14.74 33.86,12.8 36.26,12.8 C38.34,12.8 39.94,14.36 39.94,16.5 C39.94,16.64 39.92,16.9 39.9,17.04 C39.88,17.24 39.72,17.38 39.54,17.38 L34.1,17.38 C34.16,18.46 35.1,19.52 36.4,19.52 C37.12,19.52 37.78,19.2 38.18,18.94 C38.42,18.8 38.56,18.72 38.72,18.92 L39.28,19.68 C39.42,19.84 39.48,20 39.24,20.2 C38.66,20.7 37.62,21.2 36.28,21.2 C33.86,21.2 32.26,19.3 32.26,17 Z M34.2,16.12 L38.08,16.12 C38.02,15.16 37.22,14.34 36.24,14.34 C35.16,14.34 34.32,15.12 34.2,16.12 Z M41.86,20.62 L41.86,13.38 C41.86,13.18 42.04,13 42.24,13 L42.82,13 C42.96,13 43.12,13.12 43.16,13.28 L43.38,13.96 C43.52,13.76 44.26,12.8 45.72,12.8 C46.48,12.8 47.4,13 47.18,13.54 L46.7,14.52 C46.6,14.74 46.4,14.78 46.22,14.7 C46.1,14.64 45.8,14.56 45.54,14.56 C44.38,14.56 43.82,15.4 43.74,15.54 L43.74,20.62 C43.74,20.96 43.52,21 43.2,21 L42.24,21 C42.04,21 41.86,20.82 41.86,20.62 Z M48,17 C48,14.74 49.6,12.8 52,12.8 C54.08,12.8 55.68,14.36 55.68,16.5 C55.68,16.64 55.66,16.9 55.64,17.04 C55.62,17.24 55.46,17.38 55.28,17.38 L49.84,17.38 C49.9,18.46 50.84,19.52 52.14,19.52 C52.86,19.52 53.52,19.2 53.92,18.94 C54.16,18.8 54.3,18.72 54.46,18.92 L55.02,19.68 C55.16,19.84 55.22,20 54.98,20.2 C54.4,20.7 53.36,21.2 52.02,21.2 C49.6,21.2 48,19.3 48,17 Z M49.94,16.12 L53.82,16.12 C53.76,15.16 52.96,14.34 51.98,14.34 C50.9,14.34 50.06,15.12 49.94,16.12 Z M57.02,17 C57.02,14.66 58.74,12.8 60.96,12.8 C61.98,12.8 62.7,13.18 62.88,13.24 L62.88,7.38 C62.88,7.18 63.06,7 63.26,7 L64.42,7 C64.62,7 64.8,7.18 64.8,7.38 L64.8,20.62 C64.8,20.82 64.62,21 64.42,21 L63.82,21 C63.64,21 63.52,20.86 63.46,20.66 L63.3,20.08 C63.3,20.08 62.34,21.2 60.76,21.2 C58.64,21.2 57.02,19.3 57.02,17 Z M58.88,17 C58.88,18.34 59.72,19.48 61,19.48 C62.22,19.48 62.8,18.5 62.9,18.28 L62.9,15.02 C62.9,15.02 62.2,14.54 61.16,14.54 C59.82,14.54 58.88,15.64 58.88,17 Z M71.8,20.62 L71.8,7.38 C71.8,7.18 71.98,7 72.18,7 L73.34,7 C73.54,7 73.72,7.18 73.72,7.38 L73.72,13.24 C73.9,13.18 74.62,12.8 75.64,12.8 C77.86,12.8 79.58,14.66 79.58,17 C79.58,19.3 77.96,21.2 75.84,21.2 C74.26,21.2 73.3,20.08 73.3,20.08 L73.14,20.66 C73.08,20.86 72.96,21 72.78,21 L72.18,21 C71.98,21 71.8,20.82 71.8,20.62 Z M73.7,18.28 C73.8,18.5 74.38,19.48 75.6,19.48 C76.88,19.48 77.72,18.34 77.72,17 C77.72,15.64 76.78,14.54 75.44,14.54 C74.4,14.54 73.7,15 73.7,15 L73.7,18.28 Z M84,20.72 L80.52,13.52 C80.4,13.26 80.56,13 80.86,13 L82.18,13 C82.3,13 82.46,13.1 82.52,13.22 L85,18.54 L85.02,18.54 L87.42,13.22 C87.5,13.04 87.66,13 87.84,13 L88.98,13 C89.3,13 89.46,13.26 89.32,13.52 L83.2,26.76 C83.14,26.88 83.02,27 82.86,27 L81.66,27 C81.36,27 81.18,26.74 81.32,26.46 L84,20.72 Z" opacity=".7"/>
      <path d="M41.465 53.2C41.599 54.0857 42.038 54.894 42.703 55.4794 43.372 56.0711 44.241 56.3668 45.312 56.3668 46.717 56.3668 47.798 55.9973 48.556 55.2582 49.313 54.519 49.69 53.3307 49.685 51.6927L49.685 50.4642C49.27 51.089 48.711 51.6005 48.057 51.9531 47.304 52.3972 46.325 52.6192 45.12 52.6192 44.075 52.6296 43.038 52.4207 42.075 52.0061 41.161 51.6129 40.335 51.0323 39.649 50.3006 38.957 49.5543 38.412 48.6796 38.043 47.7238 37.268 45.6592 37.262 43.3765 38.025 41.3073 38.39 40.3448 38.926 39.4595 39.606 38.6959 40.28 37.9414 41.1 37.3373 42.014 36.9213 42.992 36.4799 44.051 36.2582 45.12 36.2713 46.435 36.2713 47.472 36.5103 48.231 36.9881 48.886 37.3569 49.432 37.8989 49.812 38.5577L49.812 36.5801 54.104 36.5801 54.104 51.5613C54.108 52.6895 53.944 53.8117 53.618 54.8894 53.305 55.9512 52.763 56.9282 52.032 57.7483 51.301 58.5683 50.398 59.2107 49.392 59.6281 48.14 60.1476 46.796 60.3969 45.445 60.361 44.394 60.3746 43.348 60.207 42.351 59.8655 41.476 59.5654 40.656 59.1182 39.925 58.5425 39.253 58.0071 38.685 57.3472 38.253 56.5973 37.841 55.8899 37.568 55.1068 37.451 54.2925L41.465 53.2zM45.881 48.7287C46.4 48.7478 46.917 48.6552 47.399 48.4565 47.88 48.2581 48.315 47.958 48.676 47.5763 49.4 46.8081 49.762 45.7723 49.762 44.4694 49.762 43.1665 49.386 42.137 48.633 41.381 48.276 41.0097 47.849 40.7161 47.377 40.5179 46.906 40.3199 46.4 40.2215 45.89 40.2286 45.358 40.2238 44.83 40.3224 44.334 40.519 43.861 40.7085 43.434 40.9994 43.08 41.3718 42.716 41.7595 42.432 42.2179 42.245 42.7201 42.038 43.2758 41.936 43.8661 41.944 44.4602 41.944 45.7802 42.312 46.821 43.049 47.5832 43.418 47.9621 43.86 48.2592 44.347 48.4563 44.834 48.6533 45.355 48.7462 45.879 48.7287L45.881 48.7287zM60.707 53.3702L56.725 53.3702 56.725 28.658 60.707 28.658 60.707 37.9764C61.24 37.3174 61.945 36.826 62.74 36.5589 63.515 36.2835 64.328 36.1394 65.148 36.1325 66.083 36.1102 67.013 36.2909 67.874 36.6626 68.604 36.9867 69.255 37.4705 69.781 38.0801 70.299 38.6962 70.684 39.4173 70.91 40.1959 71.159 41.0374 71.283 41.9121 71.279 42.7911L71.2790938 53.3725 66.833 53.3725 66.833 43.5771C66.863 42.7211 66.609 41.8798 66.113 41.1893 65.634 40.5515 64.859 40.2328 63.788 40.2328 62.852 40.2328 62.116 40.5455 61.581 41.1708 61.034 41.8226 60.726 42.6478 60.707 43.5056L60.707 53.3702zM89.103 48.5649C88.899 49.3049 88.577 50.0058 88.15 50.6392 87.717 51.2873 87.183 51.858 86.569 52.3286 85.904 52.8311 85.164 53.2203 84.377 53.481 83.486 53.7742 82.554 53.918 81.617 53.9074 80.509 53.9129 79.41 53.7106 78.373 53.3104 77.361 52.9212 76.438 52.3224 75.663 51.5519 74.859 50.739 74.228 49.7661 73.808 48.6939 73.337 47.4897 73.107 46.2013 73.131 44.9048 73.116 43.6533 73.347 42.4113 73.808 41.2517 74.219 40.2134 74.827 39.268 75.597 38.4698 76.34 37.7111 77.221 37.1081 78.19 36.6951 79.154 36.2777 80.189 36.0631 81.235 36.0636 83.796 36.0636 85.792 36.8373 87.224 38.3845 88.656 39.9318 89.37 42.0591 89.365 44.7665 89.365 45.0862 89.354 45.3881 89.331 45.6723 89.309 45.9565 89.297 46.1218 89.297 46.1679L77.495 46.1679C77.512 46.6968 77.644 47.2152 77.879 47.6867 78.106 48.1433 78.412 48.5543 78.782 48.8991 79.159 49.2459 79.595 49.5181 80.07 49.7011 80.574 49.898 81.111 49.9966 81.651 49.9915 82.705 49.9915 83.525 49.7525 84.109 49.2747 84.7 48.7963 85.146 48.1571 85.396 47.4309L89.103 48.5649zM84.956 43.0702C84.933 42.6556 84.848 42.2467 84.705 41.8579 84.558 41.4591 84.326 41.098 84.027 40.8 83.703 40.4761 83.319 40.221 82.898 40.0486 82.381 39.8442 81.83 39.7455 81.276 39.7582 80.748 39.7476 80.223 39.8522 79.738 40.0647 79.318 40.2547 78.935 40.5211 78.608 40.8507 78.307 41.1547 78.063 41.5133 77.89 41.9086 77.729 42.2723 77.632 42.6625 77.605 43.061L84.956 43.0702zM91.084 48.7955C91.067 48.1391 91.186 47.4866 91.434 46.8809 91.682 46.2752 92.053 45.7297 92.522 45.2807 92.975 44.8444 93.503 44.4975 94.079 44.2574 94.697 43.9993 95.343 43.816 96.003 43.7112L100.051 43.0958C100.52 43.0282 100.843 42.886 101.02 42.6694 101.199 42.4555 101.294 42.1826 101.289 41.9019 101.291 41.6115 101.231 41.3241 101.114 41.0593 100.997 40.7944 100.826 40.5582 100.611 40.3669 100.16 39.9352 99.463 39.7192 98.52 39.7192 97.538 39.7192 96.785 39.9919 96.261 40.5374 95.754 41.0477 95.44 41.7247 95.375 42.4481L91.425 41.5953C91.501 40.9028 91.705 40.2309 92.026 39.6155 92.37 38.9421 92.835 38.3403 93.397 37.8408 94.029 37.2863 94.755 36.853 95.538 36.5617 96.479 36.216 97.474 36.0479 98.475 36.0661 99.601 36.0387 100.722 36.2183 101.786 36.5962 102.617 36.8956 103.375 37.3727 104.011 37.9953 104.573 38.5645 104.997 39.2599 105.249 40.0258 105.506 40.8062 105.636 41.6246 105.633 42.4481L105.633 50.7085C105.633 51.1695 105.655 51.6528 105.701 52.1582 105.746 52.6637 105.79 53.0679 105.834 53.3706L101.754 53.3706C101.699 53.0603 101.66 52.7471 101.637 52.4325 101.604 52.0345 101.587 51.6765 101.587 51.3585 101.112 52.0679 100.49 52.6621 99.764 53.0986 98.972 53.598 97.963 53.8483 96.737 53.8499 95.932 53.8617 95.132 53.7172 94.379 53.4236 93.719 53.1654 93.112 52.7831 92.59 52.2965 92.107 51.8452 91.723 51.2958 91.461 50.6832 91.209 50.0871 91.08 49.4446 91.084 48.7955zM97.673 50.4688C98.131 50.4707 98.587 50.4077 99.028 50.2821 99.457 50.1604 99.852 49.9387 100.182 49.6345 100.534 49.3024 100.807 48.8944 100.984 48.4406 101.203 47.8467 101.305 47.2147 101.285 46.5806L101.285 45.8293 97.571 46.4101C97.039 46.4808 96.536 46.6993 96.116 47.0416 95.726 47.3719 95.531 47.8667 95.531 48.5259 95.532 49.029 95.724 49.5123 96.067 49.8742 96.425 50.2706 96.96 50.4688 97.673 50.4688zM124.449 50.3326C124.449 50.9012 124.46 51.4643 124.483 52.022 124.506 52.5798 124.539 53.0292 124.582 53.3704L120.34 53.3704C120.282 53.1009 120.243 52.8273 120.223 52.5521 120.19 52.188 120.173 51.8123 120.173 51.4251 119.745 52.1331 119.138 52.7109 118.416 53.0984 117.537 53.5782 116.552 53.8166 115.556 53.7898 114.44 53.8034 113.334 53.5764 112.31 53.1237 111.351 52.6962 110.491 52.0681 109.785 51.2799 109.063 50.4633 108.501 49.5135 108.129 48.4818 107.332 46.2275 107.327 43.7608 108.113 41.5028 108.472 40.4767 109.018 39.5294 109.724 38.7117 110.672 37.6828 111.868 36.9252 113.193 36.5149 114.517 36.1044 115.924 36.0551 117.273 36.3723 117.743 36.4877 118.198 36.6595 118.628 36.8839 118.965 37.0584 119.275 37.2829 119.547 37.55 119.755 37.751 119.931 37.9845 120.067 38.2415L120.067 28.658 124.449 28.658 124.449 50.3326zM112.005 44.9393C112.005 46.4421 112.39 47.6136 113.159 48.4542 113.535 48.8534 113.985 49.171 114.484 49.3878 114.982 49.6047 115.519 49.7165 116.061 49.7165 116.603 49.7165 117.139 49.6047 117.638 49.3878 118.137 49.171 118.587 48.8534 118.962 48.4542 119.743 47.6122 120.132 46.4289 120.132 44.9047 120.132 43.3806 119.743 42.2281 118.962 41.4475 118.582 41.0617 118.132 40.756 117.636 40.5482 117.14 40.34 116.609 40.2338 116.073 40.2354 115.537 40.2368 115.007 40.346 114.512 40.5569 114.018 40.7676 113.569 41.0757 113.191 41.4636 112.4 42.2795 112.005 43.4382 112.005 44.9393zM126.725 51.6072C126.721 51.3788 126.762 51.1518 126.846 50.94 126.93 50.7282 127.054 50.5358 127.213 50.3742 127.366 50.2094 127.552 50.079 127.758 49.9912 127.963 49.9036 128.185 49.8605 128.408 49.8649 128.861 49.8649 129.295 50.0483 129.615 50.3751 129.936 50.7019 130.115 51.1451 130.115 51.6072 130.12 51.8347 130.078 52.0605 129.992 52.2705 129.906 52.4802 129.778 52.6697 129.616 52.8264 129.458 52.9879 129.27 53.1154 129.062 53.2009 128.854 53.2864 128.632 53.3283 128.408 53.3242 128.186 53.3263 127.966 53.2834 127.761 53.1979 127.556 53.1124 127.37 52.9859 127.213 52.8262 127.056 52.6662 126.932 52.4761 126.849 52.2668 126.765 52.0575 126.723 51.8333 126.725 51.6072zM132.311 33.3005C132.311 32.6434 132.566 32.0132 133.022 31.5486 133.477 31.0839 134.095 30.8228 134.739 30.8228 135.383 30.8228 136.001 31.0839 136.456 31.5486 136.911 32.0132 137.167 32.6434 137.167 33.3005 137.167 33.9576 136.911 34.5877 136.456 35.0524 136.001 35.517 135.383 35.7781 134.739 35.7781 134.095 35.7781 133.477 35.517 133.022 35.0524 132.566 34.5877 132.311 33.9576 132.311 33.3005zM132.697 53.3523L132.697 37.5021 136.781 37.5021 136.781 53.35 132.697 53.3523zM138.918 45.4099C138.918 40.9155 142.006 37.1126 147.118 37.1126 152.23 37.1126 155.351 40.9132 155.351 45.4099 155.351 49.9065 152.263 53.744 147.12 53.744 141.976 53.744 138.918 49.9042 138.918 45.4099zM151.116 45.4099C151.116 42.9484 149.702 40.8164 147.129 40.8164 144.556 40.8164 143.153 42.9484 143.153 45.4099 143.153 47.8714 144.567 50.0356 147.109 50.0356 149.65 50.0356 151.107 47.9037 151.107 45.4099L151.116 45.4099z"/>
    </g>
  </g>
</svg>
