<?xml version="1.0" encoding="UTF-8"?>
<svg width="235px" height="18px" viewBox="0 0 235 18" version="1.1" xmlns="http://www.w3.org/2000/svg" xmlns:xlink="http://www.w3.org/1999/xlink">
    <!-- Generator: Sketch 61.1 (89650) - https://sketch.com -->
    <title>id_logo</title>
    <desc>Created with Sketch.</desc>
    <g id="Page-1" stroke="none" stroke-width="1" fill="none" fill-rule="evenodd">
        <g id="id_logo" transform="translate(-12.000000, -12.000000)" fill-rule="nonzero">
            <rect id="Rectangle" fill-opacity="0" fill="#D8D8D8" x="-4.19000003e-07" y="0" width="257" height="41"></rect>
            <g id="Group" transform="translate(12.000000, 12.000000)">
                <path d="M16.834581,0.941176471 C16.8415061,0.701030719 17.0390535,0.507945132 17.2847486,0.501176471 L20.1843575,0.501176471 C20.4300526,0.507945132 20.6276001,0.701030719 20.6345251,0.941176471 L20.6345251,16.3670588 C20.6276001,16.6072046 20.4300526,16.8002902 20.1843575,16.8070588 L17.2847486,16.8070588 C17.0390535,16.8002902 16.8415061,16.6072046 16.834581,16.3670588 L16.834581,0.941176471 Z" id="Path" fill="#474E5C"></path>
                <path d="M23.7459777,0.941176471 C23.7459777,0.698171181 23.9475246,0.501176471 24.1961453,0.501176471 L27.0295531,0.501176471 C27.2752482,0.507945132 27.4727956,0.701030719 27.4797207,0.941176471 L27.4797207,13.3776471 L33.1597765,13.3776471 C33.4083972,13.3776471 33.6099441,13.5746418 33.6099441,13.8176471 L33.6099441,16.4058824 C33.6099441,16.6488876 33.4083972,16.8458824 33.1597765,16.8458824 L24.1564246,16.8458824 C23.9078039,16.8458824 23.706257,16.6488876 23.706257,16.4058824 L23.7459777,0.941176471 Z" id="Path" fill="#474E5C"></path>
                <path d="M35.8872626,0.941176471 C35.8872626,0.824481215 35.9346908,0.712565493 36.0191136,0.630049487 C36.1035364,0.54753348 36.2180383,0.501176471 36.3374302,0.501176471 L39.170838,0.501176471 C39.4165331,0.507945132 39.6140805,0.701030719 39.6210056,0.941176471 L39.6210056,13.3776471 L45.3407821,13.3776471 C45.5894028,13.3776471 45.7909497,13.5746418 45.7909497,13.8176471 L45.7909497,16.4058824 C45.7909497,16.6488876 45.5894028,16.8458824 45.3407821,16.8458824 L36.3374302,16.8458824 C36.0888095,16.8458824 35.8872626,16.6488876 35.8872626,16.4058824 L35.8872626,0.941176471 Z" id="Path" fill="#474E5C"></path>
                <path d="M48.8362011,0.941176471 C48.8431262,0.701030719 49.0406736,0.507945132 49.2863687,0.501176471 L52.2124581,0.501176471 C52.33185,0.501176471 52.4463519,0.54753348 52.5307747,0.630049487 C52.6151975,0.712565493 52.6626257,0.824481215 52.6626257,0.941176471 L52.6626257,10.3882353 C52.6626257,11.9820641 53.9845362,13.2741176 55.6151955,13.2741176 C57.2458548,13.2741176 58.5677654,11.9820641 58.5677654,10.3882353 L58.5677654,0.941176471 C58.5677654,0.698171181 58.7693123,0.501176471 59.017933,0.501176471 L61.9440223,0.501176471 C62.1897174,0.507945132 62.3872649,0.701030719 62.3941899,0.941176471 L62.3941899,10.5694118 C62.3941899,14.2359328 59.3532029,17.2082353 55.6019553,17.2082353 C51.8507077,17.2082353 48.8097207,14.2359328 48.8097207,10.5694118 L48.8362011,0.941176471 Z" id="Path" fill="#474E5C"></path>
                <path d="M65.6115642,14.5941176 L66.7369832,12.6658824 C66.928172,12.421657 67.2782122,12.3599607 67.5446369,12.5235294 C68.5404889,13.2349786 69.7085784,13.6809578 70.9341341,13.8176471 C71.3442254,13.8571681 71.7528371,13.7296176 72.063579,13.4650844 C72.3743208,13.2005511 72.5596767,12.8224595 72.5759218,12.42 C72.5759218,11.4364706 71.7417877,10.6988235 70.1264804,10.0647059 C68.0742458,9.27529412 65.5056425,7.70941176 65.5056425,4.88823529 C65.5056425,2.58470588 67.3460335,0.255294118 71.0135754,0.255294118 C72.8572357,0.305541433 74.6390294,0.916214677 76.1110615,2.00235294 C76.3391217,2.18509091 76.4004736,2.50127652 76.2567039,2.75294118 L75.0386034,4.55176471 C74.8664804,4.81058824 74.4427933,5.01764706 74.2309497,4.84941176 C73.2304134,4.11058316 72.0556318,3.62992131 70.8149721,3.45176471 C70.4528688,3.4044393 70.0868509,3.50545309 69.8035464,3.73089848 C69.5202419,3.95634387 69.3448301,4.28618381 69.3188268,4.64235294 C69.3188268,5.50941176 70.0337989,6.15647059 71.9668715,6.90705882 C73.8999441,7.65764706 76.7863128,9.05529412 76.7863128,12.2258824 C76.5951001,15.0770954 74.0764634,17.2376432 71.1592179,17.0529412 C69.2009269,17.1545188 67.2786703,16.5096823 65.7969274,15.2541176 C65.4924022,15.0211765 65.4129609,14.9305882 65.6115642,14.5941176 L65.6115642,14.5941176 Z" id="Path" fill="#474E5C"></path>
                <path d="M82.2677654,3.93058824 L78.8517877,3.93058824 C78.603167,3.93058824 78.4016201,3.73359353 78.4016201,3.49058824 L78.4016201,0.902352941 C78.4016201,0.659347651 78.603167,0.462352941 78.8517877,0.462352941 L89.4439665,0.462352941 C89.6925872,0.462352941 89.8941341,0.659347651 89.8941341,0.902352941 L89.8941341,3.49058824 C89.8941341,3.73359353 89.6925872,3.93058824 89.4439665,3.93058824 L86.0279888,3.93058824 L86.0279888,16.3670588 C86.0210638,16.6072046 85.8235163,16.8002902 85.5778212,16.8070588 L82.717933,16.8070588 C82.4722379,16.8002902 82.2746904,16.6072046 82.2677654,16.3670588 L82.2677654,3.93058824 Z" id="Path" fill="#474E5C"></path>
                <path d="M92.555419,0.941176471 C92.555419,0.698171181 92.7569659,0.501176471 93.0055866,0.501176471 L100.128827,0.501176471 C102.651942,0.458077795 104.827572,2.22586455 105.24512,4.65837042 C105.662668,7.0908763 104.196445,9.45587904 101.797095,10.22 L105.06743,16.1341176 C105.157267,16.2740553 105.159335,16.4513869 105.072784,16.5932894 C104.986234,16.735192 104.825652,16.8177495 104.656983,16.8070588 L101.49257,16.8070588 C101.335846,16.8103606 101.189322,16.731346 101.108603,16.6 L97.9441899,10.4270588 L96.289162,10.4270588 L96.289162,16.3670588 C96.2822369,16.6072046 96.0846895,16.8002902 95.8389944,16.8070588 L93.0055866,16.8070588 C92.8861947,16.8070588 92.7716928,16.7607018 92.68727,16.6781858 C92.6028472,16.5956698 92.555419,16.4837541 92.555419,16.3670588 L92.555419,0.941176471 Z M99.8243017,7.41176471 C100.840923,7.36340531 101.639416,6.54307069 101.638215,5.54823529 C101.631001,4.57200157 100.823094,3.78234301 99.8243017,3.77529412 L96.289162,3.77529412 L96.289162,7.41176471 L99.8243017,7.41176471 Z" id="Shape" fill="#474E5C"></path>
                <path d="M107.569832,16.2117647 L115.037318,0.527058824 C115.117234,0.375515476 115.273563,0.276936019 115.447765,0.268235294 L115.686089,0.268235294 C115.861173,0.274228303 116.018781,0.373614573 116.096536,0.527058824 L123.564022,16.2117647 C123.63757,16.3458215 123.630004,16.508499 123.544315,16.6354804 C123.458626,16.7624618 123.308609,16.8333045 123.153575,16.82 L120.505531,16.82 C120.081844,16.82 119.88324,16.6776471 119.671397,16.2376471 L118.810782,14.4 L112.323073,14.4 L111.462458,16.2635294 C111.326824,16.6097936 110.980937,16.8334427 110.601844,16.82 L107.953799,16.82 C107.803405,16.8233907 107.662449,16.7485816 107.583456,16.6234487 C107.504462,16.4983157 107.499277,16.3416254 107.569832,16.2117647 L107.569832,16.2117647 Z M117.367598,11.2294118 L115.553687,7.34705882 L113.766257,11.2294118 L117.367598,11.2294118 Z" id="Shape" fill="#474E5C"></path>
                <path d="M127.430168,3.93058824 L124.01419,3.93058824 C123.894798,3.93058824 123.780296,3.88423123 123.695873,3.80171522 C123.611451,3.71919921 123.564022,3.60728349 123.564022,3.49058824 L123.564022,0.902352941 C123.564022,0.659347651 123.765569,0.462352941 124.01419,0.462352941 L134.606369,0.462352941 C134.854989,0.462352941 135.056536,0.659347651 135.056536,0.902352941 L135.056536,3.49058824 C135.056536,3.73359353 134.854989,3.93058824 134.606369,3.93058824 L131.190391,3.93058824 L131.190391,16.3670588 C131.183466,16.6072046 130.985919,16.8002902 130.740223,16.8070588 L127.880335,16.8070588 C127.63464,16.8002902 127.437093,16.6072046 127.430168,16.3670588 L127.430168,3.93058824 Z" id="Path" fill="#474E5C"></path>
                <path d="M137.558939,0.941176471 C137.558939,0.698171181 137.760485,0.501176471 138.009106,0.501176471 L147.873073,0.501176471 C148.121693,0.501176471 148.32324,0.698171181 148.32324,0.941176471 L148.32324,3.52941176 C148.32324,3.77241705 148.121693,3.96941176 147.873073,3.96941176 L141.252961,3.96941176 L141.252961,6.76470588 L146.694693,6.76470588 C146.940388,6.77147454 147.137935,6.96456013 147.14486,7.20470588 L147.14486,9.79294118 C147.14486,10.0359465 146.943313,10.2329412 146.694693,10.2329412 L141.252961,10.2329412 L141.252961,13.3776471 L147.873073,13.3776471 C148.121693,13.3776471 148.32324,13.5746418 148.32324,13.8176471 L148.32324,16.4058824 C148.32324,16.6488876 148.121693,16.8458824 147.873073,16.8458824 L138.022346,16.8458824 C137.773726,16.8458824 137.572179,16.6488876 137.572179,16.4058824 L137.558939,0.941176471 Z" id="Path" fill="#474E5C"></path>
                <path d="M150.812401,0.941176471 C150.811989,0.707930207 150.997866,0.51489651 151.236089,0.501176471 L157.048547,0.501176471 C160.028622,0.501176471 162.782324,2.05511821 164.272361,4.57764701 C165.762398,7.10017581 165.762398,10.2080595 164.272361,12.7305883 C162.782324,15.2531171 160.028622,16.8070588 157.048547,16.8070588 L151.26257,16.8070588 C151.024347,16.7933388 150.838469,16.6003051 150.838883,16.3670588 L150.812401,0.941176471 Z M156.823464,13.3647097 C158.091204,13.3658379 159.304391,12.8607159 160.181874,11.9664003 C161.059356,11.0720847 161.52496,9.86621046 161.470782,8.62823529 C161.521356,7.39363726 161.053713,6.19243312 160.176229,5.3030027 C159.298745,4.41357229 158.087595,3.91312761 156.823464,3.91758677 L154.532905,3.91758677 L154.532905,13.3647097 L156.823464,13.3647097 Z" id="Shape" fill="#474E5C"></path>
                <path d="M169.798883,12.6141176 C171.057949,12.6281034 172.075132,13.6223127 172.089441,14.8529412 C172.06777,16.0742214 171.048572,17.0531248 169.798883,17.0529412 C168.569064,17.0389625 167.575587,16.0679238 167.5612,14.8658824 C167.553727,13.6443243 168.549407,12.6423399 169.798883,12.6141176 L169.798883,12.6141176 Z" id="Path" fill="#474E5C"></path>
                <path d="M175.571618,0.941176471 C175.571207,0.707930207 175.757084,0.51489651 175.995307,0.501176471 L181.807765,0.501176471 C184.787839,0.501176471 187.541541,2.05511821 189.031579,4.57764701 C190.521616,7.10017581 190.521616,10.2080595 189.031579,12.7305883 C187.541541,15.2531171 184.787839,16.8070588 181.807765,16.8070588 L175.995307,16.8070588 C175.757084,16.7933388 175.571207,16.6003051 175.571618,16.3670588 L175.571618,0.941176471 Z M181.582682,13.3647097 C182.850422,13.3658379 184.063609,12.8607159 184.941092,11.9664003 C185.818574,11.0720847 186.284177,9.86621046 186.23,8.62823529 C186.280574,7.39363726 185.812931,6.19243312 184.935447,5.3030027 C184.057962,4.41357229 182.846813,3.91312761 181.582682,3.91758677 L179.292123,3.91758677 L179.292123,13.3647097 L181.582682,13.3647097 Z" id="Shape" fill="#474E5C"></path>
                <path d="M192.413184,0.941176471 C192.413184,0.698171181 192.614731,0.501176471 192.863352,0.501176471 L202.727318,0.501176471 C202.975939,0.501176471 203.177486,0.698171181 203.177486,0.941176471 L203.177486,3.52941176 C203.177486,3.77241705 202.975939,3.96941176 202.727318,3.96941176 L196.107207,3.96941176 L196.107207,6.76470588 L201.575419,6.76470588 C201.821114,6.77147454 202.018662,6.96456013 202.025587,7.20470588 L202.025587,9.79294118 C202.025587,10.0359465 201.82404,10.2329412 201.575419,10.2329412 L196.133687,10.2329412 L196.133687,13.3776471 L202.753799,13.3776471 C203.00242,13.3776471 203.203966,13.5746418 203.203966,13.8176471 L203.203966,16.4058824 C203.203966,16.6488876 203.00242,16.8458824 202.753799,16.8458824 L192.889832,16.8458824 C192.641212,16.8458824 192.439665,16.6488876 192.439665,16.4058824 L192.413184,0.941176471 Z" id="Path" fill="#474E5C"></path>
                <path d="M205.428324,1.10941176 C205.354776,0.975354922 205.362342,0.812677494 205.448031,0.685696106 C205.53372,0.558714719 205.683737,0.487871975 205.838771,0.501176471 L209.003184,0.501176471 C209.17919,0.504251034 209.338216,0.604531139 209.413631,0.76 L213.385698,9.26235294 L213.49162,9.26235294 L217.463687,0.76 C217.539102,0.604531139 217.698128,0.504251034 217.874134,0.501176471 L221.038547,0.501176471 C221.193581,0.487871975 221.343598,0.558714719 221.429287,0.685696106 C221.514976,0.812677494 221.522542,0.975354922 221.448994,1.10941176 L213.968268,16.7941176 C213.895397,16.9517485 213.734794,17.0529412 213.557821,17.0529412 L213.319497,17.0529412 C213.142525,17.0529412 212.981921,16.9517485 212.90905,16.7941176 L205.428324,1.10941176 Z" id="Path" fill="#474E5C"></path>
                <path d="M10.0555866,8.38235294 L0.68150838,0.151764706 C0.564050684,0.0914271481 0.422556418,0.0970491916 0.310496998,0.166506237 C0.198437578,0.235963283 0.132903038,0.358662528 0.138659218,0.488235294 L0.138659218,0.954117647 L0.138659218,1.39411765 L0.138659218,4.44823529 L0.138659218,4.69411765 L0.138659218,4.92705882 C0.14569497,5.04372043 0.216552306,5.14760583 0.324022346,5.19882353 L4.60061453,8.75764706 L0.324022346,12.3294118 C0.216552306,12.3806295 0.14569497,12.4845149 0.138659218,12.6011765 L0.138659218,12.8341176 L0.138659218,13.08 L0.138659218,16.1341176 L0.138659218,16.5741176 L0.138659218,17.1176471 C0.132903038,17.2472198 0.198437578,17.3699191 0.310496998,17.4393761 C0.422556418,17.5088332 0.564050684,17.5144552 0.68150838,17.4541176 L10.0555866,9.22352941 C10.190929,9.16341818 10.2786095,9.03234741 10.2806704,8.88705882 L10.2806704,8.77058824 C10.3010534,8.60689771 10.2097301,8.44937886 10.0555866,8.38235294 L10.0555866,8.38235294 Z" id="Path" fill="#26C1E3"></path>
                <path d="M234.397933,14.0529412 C234.643628,14.0597098 234.841175,14.2527954 234.848101,14.4929412 L234.848101,17.2882353 C234.841175,17.528381 234.643628,17.7214666 234.397933,17.7282353 L223.911676,17.7282353 C223.665981,17.7214666 223.468433,17.528381 223.461508,17.2882353 L223.461508,14.4929412 C223.468433,14.2527954 223.665981,14.0597098 223.911676,14.0529412 L234.397933,14.0529412 Z" id="Path" fill="#26C1E3"></path>
            </g>
        </g>
    </g>
</svg>