<svg viewBox="0 0 201 36" xmlns="http://www.w3.org/2000/svg"><path d="m.5.5h200v35h-200z" fill="none" opacity=".15" stroke="#fff" stroke-miterlimit="10"/><g fill="#474e5c"><path d="m24.47 12.5a.35.35 0 0 1 .34-.34h2.19a.35.35 0 0 1 .34.34v11.92a.35.35 0 0 1 -.34.34h-2.19a.35.35 0 0 1 -.34-.34z"/><path d="m29.69 12.5a.34.34 0 0 1 .34-.34h2.14a.35.35 0 0 1 .34.34v9.61h4.29a.34.34 0 0 1 .34.34v2a.34.34 0 0 1 -.34.34h-6.8a.34.34 0 0 1 -.34-.34z"/><path d="m38.86 12.5a.34.34 0 0 1 .34-.34h2.14a.35.35 0 0 1 .34.34v9.61h4.32a.34.34 0 0 1 .34.34v2a.34.34 0 0 1 -.34.34h-6.8a.34.34 0 0 1 -.34-.34z"/><path d="m48.64 12.5a.35.35 0 0 1 .34-.34h2.21a.34.34 0 0 1 .34.34v7.3a2.23 2.23 0 1 0 4.46 0v-7.3a.34.34 0 0 1 .34-.34h2.21a.35.35 0 0 1 .34.34v7.44a5.13 5.13 0 0 1 -10.26 0z"/><path d="m61.31 23.05.85-1.49a.46.46 0 0 1 .61-.11 5.37 5.37 0 0 0 2.56 1 1.13 1.13 0 0 0 1.24-1.08c0-.76-.63-1.33-1.85-1.82-1.55-.61-3.49-1.82-3.49-4 0-1.78 1.39-3.58 4.16-3.58a6.7 6.7 0 0 1 3.85 1.35.46.46 0 0 1 .11.58l-.92 1.39c-.13.2-.45.36-.61.23a5.64 5.64 0 0 0 -2.58-1.08 1 1 0 0 0 -1.13.92c0 .67.54 1.17 2 1.75s3.64 1.66 3.64 4.11a4 4 0 0 1 -4.25 3.73 5.72 5.72 0 0 1 -4.05-1.39c-.23-.18-.29-.25-.14-.51z"/><path d="m73.89 14.81h-2.58a.34.34 0 0 1 -.34-.34v-2a.34.34 0 0 1 .34-.34h8a.34.34 0 0 1 .34.34v2a.34.34 0 0 1 -.34.34h-2.58v9.61a.35.35 0 0 1 -.34.34h-2.16a.35.35 0 0 1 -.34-.34z"/><path d="m81.66 12.5a.34.34 0 0 1 .34-.34h5.38a3.85 3.85 0 0 1 1.26 7.51l2.47 4.57a.34.34 0 0 1 -.31.52h-2.39a.33.33 0 0 1 -.29-.16l-2.39-4.77h-1.25v4.59a.35.35 0 0 1 -.34.34h-2.14a.34.34 0 0 1 -.34-.34zm5.49 5a1.44 1.44 0 0 0 1.37-1.44 1.38 1.38 0 0 0 -1.37-1.37h-2.67v2.81z"/><path d="m93 24.3 5.64-12.12a.37.37 0 0 1 .31-.2h.18a.36.36 0 0 1 .31.2l5.64 12.12a.32.32 0 0 1 -.31.47h-2c-.32 0-.47-.11-.63-.45l-.65-1.42h-4.9l-.65 1.44a.67.67 0 0 1 -.65.43h-2a.32.32 0 0 1 -.29-.47zm7.4-3.85-1.37-3-1.35 3z"/><path d="m108 14.81h-2.58a.34.34 0 0 1 -.34-.34v-2a.34.34 0 0 1 .34-.34h8a.34.34 0 0 1 .34.34v2a.34.34 0 0 1 -.34.34h-2.58v9.61a.35.35 0 0 1 -.34.34h-2.16a.35.35 0 0 1 -.34-.34z"/><path d="m115.65 12.5a.34.34 0 0 1 .34-.34h7.45a.34.34 0 0 1 .34.34v2a.34.34 0 0 1 -.34.34h-5v2.16h4.11a.35.35 0 0 1 .34.34v2a.34.34 0 0 1 -.34.34h-4.11v2.43h5a.34.34 0 0 1 .34.34v2a.34.34 0 0 1 -.34.34h-7.44a.34.34 0 0 1 -.34-.34z"/><path d="m125.66 12.5a.34.34 0 0 1 .32-.34h4.39a6.3 6.3 0 1 1 0 12.6h-4.37a.34.34 0 0 1 -.32-.34zm4.54 9.6a3.51 3.51 0 0 0 3.51-3.66 3.5 3.5 0 0 0 -3.51-3.64h-1.73v7.3z"/><path d="m140 21.52a1.75 1.75 0 0 1 1.73 1.73 1.73 1.73 0 0 1 -1.73 1.7 1.71 1.71 0 0 1 -1.69-1.69 1.73 1.73 0 0 1 1.69-1.74z"/><path d="m144.36 12.5a.34.34 0 0 1 .32-.34h4.39a6.3 6.3 0 1 1 0 12.6h-4.39a.34.34 0 0 1 -.32-.34zm4.54 9.6a3.51 3.51 0 0 0 3.51-3.66 3.5 3.5 0 0 0 -3.51-3.64h-1.73v7.3z"/><path d="m157.08 12.5a.34.34 0 0 1 .34-.34h7.45a.34.34 0 0 1 .34.34v2a.34.34 0 0 1 -.34.34h-5v2.16h4.13a.35.35 0 0 1 .34.34v2a.34.34 0 0 1 -.34.34h-4.11v2.43h5a.34.34 0 0 1 .34.34v2a.34.34 0 0 1 -.34.34h-7.45a.34.34 0 0 1 -.34-.34z"/><path d="m166.91 12.63a.32.32 0 0 1 .31-.47h2.39a.35.35 0 0 1 .31.2l3 6.57h.08l3-6.57a.35.35 0 0 1 .31-.2h2.39a.32.32 0 0 1 .31.47l-5.65 12.12a.34.34 0 0 1 -.31.2h-.18a.34.34 0 0 1 -.31-.2z"/><path d="m19.35 18.25-7.08-6.36a.28.28 0 0 0 -.41.26v.36.34 2.36.19.18a.25.25 0 0 0 .14.21l3.23 2.75-3.23 2.76a.25.25 0 0 0 -.14.21v.18.19 2.36.34.42a.28.28 0 0 0 .41.26l7.08-6.36a.29.29 0 0 0 .17-.26v-.09a.29.29 0 0 0 -.17-.3z"/><path d="m188.79 24.95a.35.35 0 0 1 .34.34v2.16a.35.35 0 0 1 -.34.34h-7.92a.35.35 0 0 1 -.34-.34v-2.16a.35.35 0 0 1 .34-.34z"/></g></svg>