<svg xmlns="http://www.w3.org/2000/svg" width="30" height="30" viewBox="0 0 30 30">
  <g fill="none" fill-rule="evenodd">
    <path fill="#BD081C" fill-rule="nonzero" d="M15,30 C6.7155,30 0,23.2845 0,15 C0,6.7155 6.7155,0 15,0 C23.2845,0 30,6.7155 30,15 C30,23.2845 23.2845,30 15,30 Z" opacity=".05"/>
    <circle cx="15" cy="15" r="9" fill="#BD081C"/>
    <path fill="#FBF2F3" fill-rule="nonzero" d="M15,5 C9.5,5 5,9.5 5,15 C5,19.25 7.66666667,22.8333333 11.3333333,24.3333333 C11.25,23.5833333 11.1666667,22.3333333 11.3333333,21.5 C11.5,20.75 12.5,16.5 12.5,16.5 C12.5,16.5 12.25,15.8333333 12.25,15 C12.25,13.5833333 13.0833333,12.5833333 14.0833333,12.5833333 C14.9166667,12.5833333 15.3333333,13.25 15.3333333,14 C15.3333333,14.8333333 14.75,16.1666667 14.5,17.3333333 C14.25,18.3333333 15,19.1666667 16,19.1666667 C17.75,19.1666667 19.1666667,17.3333333 19.1666667,14.5833333 C19.1666667,12.1666667 17.4166667,10.5 15,10.5 C12.1666667,10.5 10.5,12.6666667 10.5,14.8333333 C10.5,15.6666667 10.8333333,16.5833333 11.25,17.0833333 C11.3333333,17.1666667 11.3333333,17.25 11.3333333,17.3333333 C11.25,17.6666667 11.0833333,18.3333333 11.0833333,18.5 C11,18.6666667 10.9166667,18.75 10.75,18.6666667 C9.5,18.0833333 8.75,16.25 8.75,14.8333333 C8.75,11.6666667 11.0833333,8.75 15.3333333,8.75 C18.8333333,8.75 21.5,11.25 21.5,14.5 C21.5,17.9166667 19.3333333,20.75 16.3333333,20.75 C15.3333333,20.75 14.3333333,20.25 14,19.5833333 C14,19.5833333 13.5,21.5 13.4166667,22 C13.1666667,22.8333333 12.5833333,23.9166667 12.1666667,24.5833333 C13,24.8333333 14,25 15,25 C20.5,25 25,20.5 25,15 C25,9.5 20.5,5 15,5 Z"/>
  </g>
</svg>
