<svg xmlns="http://www.w3.org/2000/svg" width="30" height="30" viewBox="0 0 30 30">
  <g fill="#69ACE0">
    <path d="M15,30 C6.7155,30 0,23.2845 0,15 C0,6.7155 6.7155,0 15,0 C23.2845,0 30,6.7155 30,15 C30,23.2845 23.2845,30 15,30 Z" opacity=".1"/>
    <path d="M22.5,10.4205 C21.948,10.6605 21.3555,10.8255 20.733,10.8975 C21.369,10.5225 21.855,9.9285 22.086,9.222 C21.4799467,9.57519931 20.8186775,9.82368236 20.13,9.957 C19.5445538,9.34335364 18.7326167,8.99731768 17.8845,9 C16.185,9 14.808,10.3575 14.808,12.03 C14.808,12.267 14.835,12.498 14.8875,12.72 C12.4226999,12.6029559 10.1208931,11.4542302 8.5455,9.555 C8.27184431,10.0156512 8.12776516,10.5416956 8.1285,11.0775 C8.1285,12.1275 8.673,13.0575 9.498,13.599 C9.00966776,13.5836861 8.53179043,13.453683 8.103,13.2195 L8.103,13.257 C8.11255553,14.7090665 9.14611248,15.9523489 10.572,16.227 C10.1180365,16.3470355 9.64303718,16.3644573 9.1815,16.278 C9.59388623,17.5197339 10.7472062,18.3642579 12.0555,18.3825 C10.9604442,19.2263369 9.61595932,19.6822376 8.2335,19.6785 C7.986,19.6785 7.7415,19.6635 7.5,19.6365 C8.91070775,20.5294316 10.5464439,21.0023591 12.216,21 C17.877,21 20.9715,16.383 20.9715,12.378 L20.961,11.985 C21.5644413,11.5609207 22.0858937,11.0308283 22.5,10.4205 L22.5,10.4205 Z"/>
  </g>
</svg>
