<svg xmlns="http://www.w3.org/2000/svg" width="100%" fill="none" viewBox="0 0 730 51">
    <rect width="158" height="49" fill="#33BBE6" rx="4"/>
    <rect width="243" height="48" x="193.5" y="0.5" stroke="#33BBE6" rx="3.5"/>
    <rect width="257.985" height="47.9848" x="470.508" y="0.507605" stroke="#33BBE6" stroke-width="1.01521" rx="3.55323"/>
    <path fill="white" d="M20.632 33.288C23.104 33.288 24.664 32.064 25.384 30.408L24.016 29.472C23.392 30.816 22.312 31.632 20.656 31.632C18.328 31.632 17.08 30.048 17.08 27.864V25.752C17.08 23.568 18.352 21.984 20.608 21.984C22.144 21.984 23.2 22.728 23.656 24L25.192 23.184C24.496 21.504 23.008 20.328 20.608 20.328C17.104 20.328 15.016 22.872 15.016 26.808C15.016 30.72 17.08 33.288 20.632 33.288ZM34.5906 33.288C38.0706 33.288 40.2066 30.744 40.2066 26.808C40.2066 22.872 38.0706 20.328 34.5906 20.328C31.1106 20.328 28.9746 22.872 28.9746 26.808C28.9746 30.744 31.1106 33.288 34.5906 33.288ZM34.5906 31.632C32.4546 31.632 31.0146 30.36 31.0146 27.696V25.92C31.0146 23.256 32.4546 21.984 34.5906 21.984C36.7266 21.984 38.1666 23.256 38.1666 25.92V27.696C38.1666 30.36 36.7266 31.632 34.5906 31.632ZM46.0533 33V24.408C46.0533 22.776 47.5893 22.032 49.1253 22.032C51.0213 22.032 52.0533 23.136 52.0533 25.392V33H53.9733V25.056C53.9733 22.056 52.2693 20.328 49.6773 20.328C47.6373 20.328 46.6773 21.408 46.1493 22.632H46.0533V20.616H44.1333V33H46.0533ZM66.3719 33H68.2919V15.24H66.3719V22.632H66.2759C65.4839 21.12 64.1879 20.328 62.4599 20.328C59.4359 20.328 57.6119 22.752 57.6119 26.808C57.6119 30.864 59.4359 33.288 62.4599 33.288C64.1879 33.288 65.4839 32.496 66.2759 30.984H66.3719V33ZM63.2039 31.584C60.9719 31.584 59.6759 30.096 59.6759 27.864V25.752C59.6759 23.52 60.9719 22.032 63.2039 22.032C64.9079 22.032 66.3719 22.92 66.3719 24.576V29.04C66.3719 30.696 64.9079 31.584 63.2039 31.584ZM78.5305 17.88C79.6345 17.88 80.0425 17.352 80.0425 16.656V16.272C80.0425 15.576 79.6345 15.048 78.5305 15.048C77.4265 15.048 77.0185 15.576 77.0185 16.272V16.656C77.0185 17.352 77.4265 17.88 78.5305 17.88ZM73.1065 33H83.6665V31.368H79.4905V20.616H73.1065V22.248H77.5705V31.368H73.1065V33ZM97.5771 33V31.368H91.9371V22.248H97.5771V20.616H91.9371V16.248H90.0891V19.488C90.0891 20.328 89.7771 20.616 88.9611 20.616H85.8891V22.248H90.0171V30.168C90.0171 31.824 90.8811 33 92.7531 33H97.5771ZM107.312 17.88C108.416 17.88 108.824 17.352 108.824 16.656V16.272C108.824 15.576 108.416 15.048 107.312 15.048C106.208 15.048 105.8 15.576 105.8 16.272V16.656C105.8 17.352 106.208 17.88 107.312 17.88ZM101.888 33H112.448V31.368H108.272V20.616H101.888V22.248H106.352V31.368H101.888V33ZM120.934 33.288C124.414 33.288 126.55 30.744 126.55 26.808C126.55 22.872 124.414 20.328 120.934 20.328C117.454 20.328 115.318 22.872 115.318 26.808C115.318 30.744 117.454 33.288 120.934 33.288ZM120.934 31.632C118.798 31.632 117.358 30.36 117.358 27.696V25.92C117.358 23.256 118.798 21.984 120.934 21.984C123.07 21.984 124.51 23.256 124.51 25.92V27.696C124.51 30.36 123.07 31.632 120.934 31.632ZM132.397 33V24.408C132.397 22.776 133.933 22.032 135.469 22.032C137.365 22.032 138.397 23.136 138.397 25.392V33H140.317V25.056C140.317 22.056 138.613 20.328 136.021 20.328C133.981 20.328 133.021 21.408 132.493 22.632H132.397V20.616H130.477V33H132.397Z"/>
    <path fill="black" d="M176.136 28.528V26.608C178.416 26.2 180.528 24.568 180.528 21.76C180.528 18.904 178.344 16.96 175.056 16.96C171.816 16.96 170.16 18.832 169.584 20.824L172.176 21.88C172.512 20.56 173.472 19.6 174.96 19.6C176.304 19.6 177.264 20.272 177.264 21.712V22.048C177.264 23.968 175.704 24.736 173.208 24.832V28.528H176.136ZM174.744 34.264C176.328 34.264 176.928 33.496 176.928 32.536V31.864C176.928 30.904 176.328 30.136 174.744 30.136C173.16 30.136 172.56 30.904 172.56 31.864V32.536C172.56 33.496 173.16 34.264 174.744 34.264Z"/>
    <path fill="black" d="M453.2 25.744C454.856 25.744 455.504 24.928 455.504 23.92V23.2C455.504 22.192 454.856 21.376 453.2 21.376C451.544 21.376 450.896 22.192 450.896 23.2V23.92C450.896 24.928 451.544 25.744 453.2 25.744ZM453.2 34.264C454.856 34.264 455.504 33.448 455.504 32.44V31.72C455.504 30.712 454.856 29.896 453.2 29.896C451.544 29.896 450.896 30.712 450.896 31.72V32.44C450.896 33.448 451.544 34.264 453.2 34.264Z"/>
    <path fill="#33BBE6" d="M216.672 34H219.744V16.24H216.672V23.8H216.504C215.832 22.312 214.704 21.328 212.808 21.328C209.976 21.328 208.08 23.44 208.08 27.808C208.08 32.176 209.976 34.288 212.808 34.288C214.704 34.288 215.832 33.304 216.504 31.816H216.672V34ZM214.104 31.84C212.328 31.84 211.296 30.664 211.296 28.792V26.824C211.296 24.952 212.328 23.776 214.104 23.776C215.496 23.776 216.672 24.448 216.672 25.864V29.752C216.672 31.168 215.496 31.84 214.104 31.84ZM228.591 34.288C232.335 34.288 234.639 31.792 234.639 27.808C234.639 23.824 232.335 21.328 228.591 21.328C224.847 21.328 222.543 23.824 222.543 27.808C222.543 31.792 224.847 34.288 228.591 34.288ZM228.591 31.936C226.839 31.936 225.735 30.832 225.735 28.768V26.848C225.735 24.784 226.839 23.68 228.591 23.68C230.343 23.68 231.447 24.784 231.447 26.848V28.768C231.447 30.832 230.343 31.936 228.591 31.936ZM262.868 34V31.576H257.828V24.04H262.868V21.616H257.828V17.248H254.972V20.248C254.972 21.28 254.588 21.616 253.604 21.616H251.156V24.04H254.756V30.64C254.756 32.608 255.86 34 258.212 34H262.868ZM266.363 34H269.435V25.72C269.435 24.4 270.635 23.752 271.883 23.752C273.419 23.752 274.211 24.664 274.211 26.44V34H277.283V26.008C277.283 23.008 275.603 21.328 273.179 21.328C271.163 21.328 270.107 22.456 269.555 23.8H269.435V16.24H266.363V34ZM286.921 19.696C288.361 19.696 288.889 19 288.889 18.136V17.56C288.889 16.696 288.361 16 286.921 16C285.481 16 284.953 16.696 284.953 17.56V18.136C284.953 19 285.481 19.696 286.921 19.696ZM281.305 34H292.249V31.576H288.457V21.616H281.305V24.04H285.385V31.576H281.305V34ZM300.496 34.288C304 34.288 306.088 32.728 306.088 30.184C306.088 27.736 304.12 26.944 302.032 26.632L300.064 26.32C299.056 26.176 298.336 25.912 298.336 25.024C298.336 24.064 299.152 23.56 300.688 23.56C302.464 23.56 303.616 24.256 304.312 25.024L305.92 23.248C304.84 22.048 303.16 21.328 300.784 21.328C297.424 21.328 295.336 22.768 295.336 25.336C295.336 27.784 297.304 28.6 299.368 28.912L301.36 29.224C302.368 29.368 303.064 29.608 303.064 30.496C303.064 31.552 302.056 32.056 300.52 32.056C298.768 32.056 297.448 31.408 296.44 30.304L294.64 31.936C295.744 33.376 297.784 34.288 300.496 34.288ZM330.093 19.696C331.533 19.696 332.061 19 332.061 18.136V17.56C332.061 16.696 331.533 16 330.093 16C328.653 16 328.125 16.696 328.125 17.56V18.136C328.125 19 328.653 19.696 330.093 19.696ZM324.477 34H335.421V31.576H331.629V21.616H324.477V24.04H328.557V31.576H324.477V34ZM338.316 34H349.212V31.576H345.18V24.04H349.764V21.616H345.18V18.664H349.764V16.24H345.588C343.212 16.24 342.108 17.632 342.108 19.6V21.616H338.076V24.04H342.108V31.576H338.316V34ZM377.993 34V31.576H372.953V24.04H377.993V21.616H372.953V17.248H370.097V20.248C370.097 21.28 369.713 21.616 368.729 21.616H366.281V24.04H369.881V30.64C369.881 32.608 370.985 34 373.337 34H377.993ZM381.488 34H391.928V31.576H387.632V27.4C387.632 25.816 388.664 24.496 390.608 24.496H393.152V21.616H391.807C389.336 21.616 388.28 23.248 387.824 25H387.632V21.616H381.488V24.04H384.56V31.576H381.488V34ZM403.606 34H406.678V21.616H403.606V29.896C403.606 31.216 402.406 31.864 401.158 31.864C399.622 31.864 398.83 30.952 398.83 29.176V21.616H395.758V29.608C395.758 32.608 397.438 34.288 399.862 34.288C401.878 34.288 402.934 33.16 403.486 31.816H403.606V34ZM415.957 34.288C418.573 34.288 420.277 33.208 421.165 31.912L419.413 30.16C418.669 31.192 417.565 31.864 416.053 31.864C414.037 31.864 412.861 30.64 412.861 28.864V28.552H421.549V27.544C421.549 23.8 419.293 21.328 415.717 21.328C412.093 21.328 409.789 23.824 409.789 27.832C409.789 31.792 411.997 34.288 415.957 34.288ZM415.741 23.584C417.421 23.584 418.477 24.736 418.477 26.512V26.728H412.861V26.56C412.861 24.784 414.013 23.584 415.741 23.584Z"/>
    <path fill="#33BBE6" d="M493.672 34H496.744V16.24H493.672V23.8H493.504C492.832 22.312 491.704 21.328 489.808 21.328C486.976 21.328 485.08 23.44 485.08 27.808C485.08 32.176 486.976 34.288 489.808 34.288C491.704 34.288 492.832 33.304 493.504 31.816H493.672V34ZM491.104 31.84C489.328 31.84 488.296 30.664 488.296 28.792V26.824C488.296 24.952 489.328 23.776 491.104 23.776C492.496 23.776 493.672 24.448 493.672 25.864V29.752C493.672 31.168 492.496 31.84 491.104 31.84ZM505.591 34.288C509.335 34.288 511.639 31.792 511.639 27.808C511.639 23.824 509.335 21.328 505.591 21.328C501.847 21.328 499.543 23.824 499.543 27.808C499.543 31.792 501.847 34.288 505.591 34.288ZM505.591 31.936C503.839 31.936 502.735 30.832 502.735 28.768V26.848C502.735 24.784 503.839 23.68 505.591 23.68C507.343 23.68 508.447 24.784 508.447 26.848V28.768C508.447 30.832 507.343 31.936 505.591 31.936ZM539.868 34V31.576H534.828V24.04H539.868V21.616H534.828V17.248H531.972V20.248C531.972 21.28 531.588 21.616 530.604 21.616H528.156V24.04H531.756V30.64C531.756 32.608 532.86 34 535.212 34H539.868ZM543.363 34H546.435V25.72C546.435 24.4 547.635 23.752 548.883 23.752C550.419 23.752 551.211 24.664 551.211 26.44V34H554.283V26.008C554.283 23.008 552.603 21.328 550.179 21.328C548.163 21.328 547.107 22.456 546.555 23.8H546.435V16.24H543.363V34ZM563.921 19.696C565.361 19.696 565.889 19 565.889 18.136V17.56C565.889 16.696 565.361 16 563.921 16C562.481 16 561.953 16.696 561.953 17.56V18.136C561.953 19 562.481 19.696 563.921 19.696ZM558.305 34H569.249V31.576H565.457V21.616H558.305V24.04H562.385V31.576H558.305V34ZM577.496 34.288C581 34.288 583.088 32.728 583.088 30.184C583.088 27.736 581.12 26.944 579.032 26.632L577.064 26.32C576.056 26.176 575.336 25.912 575.336 25.024C575.336 24.064 576.152 23.56 577.688 23.56C579.464 23.56 580.616 24.256 581.312 25.024L582.92 23.248C581.84 22.048 580.16 21.328 577.784 21.328C574.424 21.328 572.336 22.768 572.336 25.336C572.336 27.784 574.304 28.6 576.368 28.912L578.36 29.224C579.368 29.368 580.064 29.608 580.064 30.496C580.064 31.552 579.056 32.056 577.52 32.056C575.768 32.056 574.448 31.408 573.44 30.304L571.64 31.936C572.744 33.376 574.784 34.288 577.496 34.288ZM607.093 19.696C608.533 19.696 609.061 19 609.061 18.136V17.56C609.061 16.696 608.533 16 607.093 16C605.653 16 605.125 16.696 605.125 17.56V18.136C605.125 19 605.653 19.696 607.093 19.696ZM601.477 34H612.421V31.576H608.629V21.616H601.477V24.04H605.557V31.576H601.477V34ZM615.316 34H626.212V31.576H622.18V24.04H626.764V21.616H622.18V18.664H626.764V16.24H622.588C620.212 16.24 619.108 17.632 619.108 19.6V21.616H615.076V24.04H619.108V31.576H615.316V34ZM644.097 34H654.993V31.576H650.961V24.04H655.545V21.616H650.961V18.664H655.545V16.24H651.369C648.993 16.24 647.889 17.632 647.889 19.6V21.616H643.857V24.04H647.889V31.576H644.097V34ZM670.247 34V31.696H668.784V25.864C668.784 22.888 666.816 21.328 663.576 21.328C660.888 21.328 659.16 22.408 658.392 23.776L660.144 25.264C660.816 24.304 661.704 23.632 663.264 23.632C664.968 23.632 665.712 24.448 665.712 26.008V26.824H663.528C659.88 26.824 658.032 28.072 658.032 30.568C658.032 32.896 659.64 34.288 662.112 34.288C664.032 34.288 665.4 33.4 665.856 31.864H665.976C666.12 33.184 666.96 34 668.448 34H670.247ZM663.144 32.176C661.872 32.176 661.08 31.648 661.08 30.664V30.184C661.08 29.152 661.92 28.6 663.6 28.6H665.712V30.256C665.712 31.432 664.608 32.176 663.144 32.176ZM672.806 34H683.774V31.576H679.814V16.24H672.806V18.664H676.742V31.576H672.806V34ZM692.621 34.288C696.125 34.288 698.213 32.728 698.213 30.184C698.213 27.736 696.245 26.944 694.157 26.632L692.189 26.32C691.181 26.176 690.461 25.912 690.461 25.024C690.461 24.064 691.277 23.56 692.813 23.56C694.589 23.56 695.741 24.256 696.437 25.024L698.045 23.248C696.965 22.048 695.285 21.328 692.909 21.328C689.549 21.328 687.461 22.768 687.461 25.336C687.461 27.784 689.429 28.6 691.493 28.912L693.485 29.224C694.493 29.368 695.189 29.608 695.189 30.496C695.189 31.552 694.181 32.056 692.645 32.056C690.893 32.056 689.573 31.408 688.565 30.304L686.765 31.936C687.869 33.376 689.909 34.288 692.621 34.288ZM707.347 34.288C709.963 34.288 711.667 33.208 712.555 31.912L710.803 30.16C710.059 31.192 708.955 31.864 707.443 31.864C705.427 31.864 704.251 30.64 704.251 28.864V28.552H712.939V27.544C712.939 23.8 710.683 21.328 707.107 21.328C703.483 21.328 701.179 23.824 701.179 27.832C701.179 31.792 703.387 34.288 707.347 34.288ZM707.131 23.584C708.811 23.584 709.867 24.736 709.867 26.512V26.728H704.251V26.56C704.251 24.784 705.403 23.584 707.131 23.584Z"/>
</svg>
